<?xml version="1.0" encoding="UTF-8" standalone="no"?>
<svg width="108px" height="28px" viewBox="0 0 108 28" version="1.1" xmlns="http://www.w3.org/2000/svg" xmlns:xlink="http://www.w3.org/1999/xlink">
    <!-- Generator: Sketch 3.7.2 (28276) - http://www.bohemiancoding.com/sketch -->
    <title>paypal-logo</title>
    <desc>Created with Sketch.</desc>
    <defs>
        <polygon id="path-1" points="10.4591855 0.042 0 0.042 0 24.252 20.9183709 24.252 20.9183709 0.042 10.4591855 0.042"></polygon>
        <polygon id="path-3" points="53.6799587 0.042 0 0.042 0 27.272 107.359917 27.272 107.359917 0.042 53.6799587 0.042"></polygon>
    </defs>
    <g id="Page-1" stroke="none" stroke-width="1" fill="none" fill-rule="evenodd">
        <g id="paypal-logo">
            <g id="Group-3">
                <mask id="mask-2" fill="white">
                    <use xlink:href="#path-1"></use>
                </mask>
                <g id="Clip-2"></g>
                <path d="M19.648,2.095 C18.388,0.658 16.108,0.042 13.192,0.042 L4.73,0.042 C4.133,0.042 3.626,0.476 3.533,1.064 L0.009,23.412 C-0.061,23.852 0.28,24.252 0.727,24.252 L5.951,24.252 L7.264,15.929 L7.223,16.19 C7.316,15.601 7.82,15.167 8.415,15.167 L10.898,15.167 C15.775,15.167 19.594,13.187 20.71,7.456 C20.743,7.286 20.771,7.121 20.796,6.96 C20.656,6.886 20.656,6.886 20.796,6.96 C21.129,4.842 20.794,3.4 19.648,2.095" id="Fill-1" fill="#27346A" mask="url(#mask-2)"></path>
            </g>
            <path d="M83.608,12.73 C83.288,14.827 81.687,14.827 80.138,14.827 L79.256,14.827 L79.875,10.911 C79.912,10.675 80.116,10.501 80.355,10.501 L80.76,10.501 C81.814,10.501 82.81,10.501 83.324,11.101 C83.631,11.46 83.724,11.994 83.608,12.73 M82.934,7.258 L77.092,7.258 C76.692,7.258 76.352,7.549 76.289,7.943 L73.927,22.924 C73.881,23.219 74.109,23.487 74.408,23.487 L77.406,23.487 C77.685,23.487 77.923,23.283 77.967,23.007 L78.637,18.76 C78.699,18.365 79.04,18.075 79.439,18.075 L81.287,18.075 C85.135,18.075 87.357,16.212 87.937,12.521 C88.198,10.908 87.947,9.639 87.192,8.751 C86.361,7.775 84.888,7.258 82.934,7.258" id="Fill-4" fill="#2790C3"></path>
            <path d="M41.939,12.73 C41.619,14.827 40.018,14.827 38.469,14.827 L37.587,14.827 L38.206,10.911 C38.243,10.675 38.447,10.501 38.686,10.501 L39.091,10.501 C40.145,10.501 41.141,10.501 41.655,11.101 C41.962,11.46 42.055,11.994 41.939,12.73 M41.265,7.258 L35.423,7.258 C35.023,7.258 34.683,7.549 34.62,7.943 L32.258,22.924 C32.212,23.219 32.44,23.487 32.739,23.487 L35.529,23.487 C35.928,23.487 36.268,23.196 36.33,22.802 L36.968,18.76 C37.03,18.365 37.37,18.075 37.77,18.075 L39.618,18.075 C43.466,18.075 45.688,16.212 46.268,12.521 C46.529,10.908 46.278,9.639 45.523,8.751 C44.692,7.775 43.219,7.258 41.265,7.258" id="Fill-5" fill="#27346A"></path>
            <path d="M54.828,18.108 C54.557,19.706 53.289,20.779 51.67,20.779 C50.859,20.779 50.209,20.518 49.792,20.024 C49.378,19.534 49.222,18.836 49.353,18.059 C49.605,16.475 50.894,15.367 52.488,15.367 C53.283,15.367 53.928,15.631 54.353,16.129 C54.782,16.632 54.951,17.334 54.828,18.108 M58.727,12.662 L55.929,12.662 C55.689,12.662 55.485,12.836 55.448,13.074 L55.325,13.855 L55.13,13.572 C54.523,12.693 53.173,12.399 51.825,12.399 C48.734,12.399 46.094,14.741 45.58,18.026 C45.313,19.665 45.693,21.231 46.622,22.324 C47.475,23.328 48.693,23.746 50.145,23.746 C52.637,23.746 54.018,22.146 54.018,22.146 L53.893,22.924 C53.846,23.219 54.075,23.486 54.374,23.486 L56.893,23.486 C57.293,23.486 57.633,23.196 57.695,22.802 L59.208,13.225 C59.255,12.93 59.026,12.662 58.727,12.662" id="Fill-6" fill="#27346A"></path>
            <path d="M96.497,18.108 C96.227,19.706 94.958,20.779 93.339,20.779 C92.528,20.779 91.878,20.518 91.461,20.024 C91.047,19.534 90.891,18.836 91.022,18.059 C91.274,16.475 92.564,15.367 94.157,15.367 C94.952,15.367 95.597,15.631 96.022,16.129 C96.451,16.632 96.62,17.334 96.497,18.108 M100.396,12.662 L97.598,12.662 C97.359,12.662 97.155,12.836 97.117,13.074 L96.994,13.855 L96.798,13.572 C96.193,12.693 94.842,12.399 93.494,12.399 C90.403,12.399 87.763,14.741 87.249,18.026 C86.982,19.665 87.362,21.231 88.291,22.324 C89.145,23.328 90.363,23.746 91.814,23.746 C94.306,23.746 95.687,22.146 95.687,22.146 L95.562,22.924 C95.515,23.219 95.744,23.486 96.043,23.486 L98.562,23.486 C98.962,23.486 99.302,23.196 99.365,22.802 L100.877,13.225 C100.924,12.93 100.695,12.662 100.396,12.662" id="Fill-7" fill="#2790C3"></path>
            <g id="Group-13">
                <mask id="mask-4" fill="white">
                    <use xlink:href="#path-3"></use>
                </mask>
                <g id="Clip-9"></g>
                <path d="M73.626,12.662 L70.814,12.662 C70.545,12.662 70.294,12.796 70.143,13.019 L66.264,18.731 L64.62,13.242 C64.517,12.898 64.201,12.662 63.842,12.662 L61.079,12.662 C60.745,12.662 60.51,12.991 60.618,13.307 L63.714,22.395 L60.802,26.504 C60.573,26.826 60.804,27.272 61.199,27.272 L64.008,27.272 C64.274,27.272 64.523,27.142 64.675,26.924 L74.026,13.427 C74.25,13.104 74.019,12.662 73.626,12.662" id="Fill-8" fill="#27346A" mask="url(#mask-4)"></path>
                <path d="M103.693,7.67 L101.295,22.924 C101.249,23.22 101.477,23.487 101.776,23.487 L104.188,23.487 C104.587,23.487 104.927,23.196 104.989,22.802 L107.354,7.821 C107.4,7.526 107.172,7.258 106.872,7.258 L104.174,7.258 C103.934,7.258 103.73,7.432 103.693,7.67" id="Fill-10" fill="#2790C3" mask="url(#mask-4)"></path>
                <path d="M19.648,2.095 C18.388,0.658 16.108,0.042 13.192,0.042 L4.73,0.042 C4.133,0.042 3.626,0.476 3.533,1.064 L0.009,23.412 C-0.061,23.852 0.28,24.252 0.727,24.252 L5.951,24.252 L7.264,15.929 L7.223,16.19 C7.316,15.601 7.82,15.167 8.415,15.167 L10.898,15.167 C15.775,15.167 19.594,13.187 20.71,7.456 C20.743,7.286 20.771,7.121 20.796,6.96 C20.656,6.886 20.656,6.886 20.796,6.96 C21.129,4.842 20.794,3.4 19.648,2.095" id="Fill-11" fill="#27346A" mask="url(#mask-4)"></path>
                <path d="M8.674,6.988 C8.73,6.634 8.957,6.344 9.263,6.197 C9.402,6.131 9.557,6.094 9.72,6.094 L16.355,6.094 C17.14,6.094 17.873,6.145 18.543,6.253 C18.735,6.284 18.921,6.319 19.102,6.36 C19.283,6.4 19.458,6.445 19.628,6.495 C19.713,6.52 19.797,6.545 19.879,6.573 C20.208,6.682 20.515,6.811 20.796,6.96 C21.129,4.842 20.794,3.401 19.649,2.095 C18.387,0.658 16.108,0.042 13.193,0.042 L4.729,0.042 C4.133,0.042 3.626,0.476 3.533,1.064 L0.009,23.411 C-0.061,23.853 0.28,24.251 0.726,24.251 L5.952,24.251 L8.674,6.988" id="Fill-12" fill="#27346A" mask="url(#mask-4)"></path>
            </g>
            <path d="M20.796,6.96 L20.796,6.96 C20.771,7.122 20.743,7.286 20.71,7.456 C19.594,13.186 15.775,15.167 10.898,15.167 L8.415,15.167 C7.819,15.167 7.316,15.601 7.223,16.19 L5.591,26.538 C5.53,26.923 5.828,27.273 6.218,27.273 L10.622,27.273 C11.144,27.273 11.587,26.893 11.669,26.379 L11.712,26.154 L12.542,20.894 L12.595,20.603 C12.677,20.088 13.12,19.709 13.641,19.709 L14.301,19.709 C18.567,19.709 21.908,17.976 22.884,12.963 C23.291,10.868 23.08,9.119 22.002,7.89 C21.675,7.518 21.27,7.211 20.796,6.96" id="Fill-14" fill="#2790C3"></path>
            <path d="M19.629,6.495 C19.458,6.445 19.283,6.4 19.102,6.36 C18.921,6.32 18.734,6.284 18.543,6.254 C17.873,6.145 17.141,6.094 16.354,6.094 L9.72,6.094 C9.557,6.094 9.402,6.131 9.263,6.198 C8.957,6.345 8.73,6.634 8.674,6.989 L7.264,15.929 L7.223,16.19 C7.316,15.601 7.819,15.167 8.415,15.167 L10.898,15.167 C15.776,15.167 19.594,13.186 20.71,7.456 C20.743,7.286 20.771,7.122 20.797,6.96 C20.514,6.811 20.208,6.682 19.879,6.573 C19.797,6.546 19.714,6.519 19.629,6.495" id="Fill-15" fill="#20264F"></path>
        </g>
    </g>
</svg>