<?xml version="1.0" encoding="utf-8"?>
<!-- Generator: Adobe Illustrator 16.0.4, SVG Export Plug-In . SVG Version: 6.00 Build 0)  -->
<!DOCTYPE svg PUBLIC "-//W3C//DTD SVG 1.1//EN" "http://www.w3.org/Graphics/SVG/1.1/DTD/svg11.dtd">
<svg version="1.1" id="Layer_1" xmlns="http://www.w3.org/2000/svg" xmlns:xlink="http://www.w3.org/1999/xlink" x="0px" y="0px"
	 width="22.65px" height="21.608px" viewBox="0 0 22.65 21.608" enable-background="new 0 0 22.65 21.608" xml:space="preserve">
<g>
	<g>
		<path fill="#FFFFFF" stroke="#010101" stroke-width="2" stroke-linecap="round" stroke-linejoin="round" d="M21.129,1l0.521,0.745
			c-2.124,1.598-4.486,4.06-7.087,7.385c-2.6,3.324-4.585,6.432-5.955,9.32l-1.102,0.744c-0.913,0.635-1.534,1.107-1.861,1.414
			c-0.129-0.466-0.412-1.23-0.849-2.293L4.38,17.348c-0.595-1.391-1.149-2.418-1.66-3.083C2.208,13.601,1.636,13.159,1,12.94
			c1.072-1.131,2.055-1.697,2.948-1.697c0.764,0,1.613,1.037,2.546,3.111l0.461,1.043c1.678-2.828,3.831-5.578,6.462-8.248
			C16.047,4.479,18.618,2.429,21.129,1z"/>
	</g>
	<g>
		<path fill="#129948" d="M21.129,1l0.521,0.745c-2.124,1.598-4.486,4.06-7.087,7.385c-2.6,3.324-4.585,6.432-5.955,9.32
			l-1.102,0.744c-0.913,0.635-1.534,1.107-1.861,1.414c-0.129-0.466-0.412-1.23-0.849-2.293L4.38,17.348
			c-0.595-1.391-1.149-2.418-1.66-3.083C2.208,13.601,1.636,13.159,1,12.94c1.072-1.131,2.055-1.697,2.948-1.697
			c0.764,0,1.613,1.037,2.546,3.111l0.461,1.043c1.678-2.828,3.831-5.578,6.462-8.248C16.047,4.479,18.618,2.429,21.129,1z"/>
	</g>
</g>
</svg>
