<?xml version="1.0" encoding="utf-8"?>
<!-- Generator: Adobe Illustrator 16.0.4, SVG Export Plug-In . SVG Version: 6.00 Build 0)  -->
<!DOCTYPE svg PUBLIC "-//W3C//DTD SVG 1.1//EN" "http://www.w3.org/Graphics/SVG/1.1/DTD/svg11.dtd">
<svg version="1.1" id="Layer_1" xmlns="http://www.w3.org/2000/svg" xmlns:xlink="http://www.w3.org/1999/xlink" x="0px" y="0px"
	 width="18.397px" height="16.693px" viewBox="0 0 18.397 16.693" enable-background="new 0 0 18.397 16.693" xml:space="preserve">
<g>
	<g>
		<path fill="#FFFFFF" stroke="#010101" stroke-width="2" d="M9.228,11.869l-0.224,0.312c-1.547,2.341-2.817,3.512-3.81,3.512
			c-1.141,0-2.261-0.928-3.362-2.782c0.149,0.01,0.258,0.014,0.327,0.014c1.299,0,2.748-0.991,4.345-2.976l0.401-0.506L6.386,8.877
			C4.927,7.33,4.198,6.015,4.198,4.934c0-0.883,0.799-1.924,2.396-3.125c0.229,1.538,0.908,3.036,2.039,4.494l0.447,0.565
			l0.357-0.461c1.656-2.113,3.159-3.169,4.509-3.169c1.052,0,1.851,0.798,2.396,2.396c-0.158-0.02-0.273-0.029-0.342-0.029
			c-0.477,0-1.146,0.319-2.01,0.959c-0.862,0.64-1.592,1.362-2.188,2.165l-0.445,0.61l0.432,0.418
			c1.596,1.547,3.264,2.32,4.999,2.32c-0.933,1.885-1.905,2.827-2.917,2.827c-0.912,0-2.231-0.804-3.958-2.41L9.228,11.869z"/>
	</g>
	<g>
		<path fill="#D95426" d="M9.228,11.869l-0.224,0.312c-1.547,2.341-2.817,3.512-3.81,3.512c-1.141,0-2.261-0.928-3.362-2.782
			c0.149,0.01,0.258,0.014,0.327,0.014c1.299,0,2.748-0.991,4.345-2.976l0.401-0.506L6.386,8.877
			C4.927,7.33,4.198,6.015,4.198,4.934c0-0.883,0.799-1.924,2.396-3.125c0.229,1.538,0.908,3.036,2.039,4.494l0.447,0.565
			l0.357-0.461c1.656-2.113,3.159-3.169,4.509-3.169c1.052,0,1.851,0.798,2.396,2.396c-0.158-0.02-0.273-0.029-0.342-0.029
			c-0.477,0-1.146,0.319-2.01,0.959c-0.862,0.64-1.592,1.362-2.188,2.165l-0.445,0.61l0.432,0.418
			c1.596,1.547,3.264,2.32,4.999,2.32c-0.933,1.885-1.905,2.827-2.917,2.827c-0.912,0-2.231-0.804-3.958-2.41L9.228,11.869z"/>
	</g>
</g>
</svg>
