<?xml version="1.0" encoding="UTF-8" standalone="no"?>
<svg width="212px" height="128px" viewBox="0 0 212 128" version="1.1" xmlns="http://www.w3.org/2000/svg" xmlns:xlink="http://www.w3.org/1999/xlink">
    <!-- Generator: Sketch 3.7.2 (28276) - http://www.bohemiancoding.com/sketch -->
    <title>mastercard-logo</title>
    <desc>Created with Sketch.</desc>
    <defs></defs>
    <g id="Page-1" stroke="none" stroke-width="1" fill="none" fill-rule="evenodd">
        <g id="mastercard-logo">
            <path d="M126.81,64 C126.81,98.949 98.481,127.277 63.534,127.277 C28.584,127.277 0.253,98.949 0.253,64 C0.253,29.052 28.584,0.721 63.534,0.721 C98.481,0.721 126.81,29.052 126.81,64" id="Fill-2" fill="#CC0000"></path>
            <path d="M148.488,0.721 C132.135,0.721 117.238,6.924 106.006,17.1 C103.722,19.174 101.588,21.414 99.621,23.799 L112.404,23.799 C114.15,25.925 115.76,28.16 117.228,30.501 L94.794,30.501 C93.453,32.652 92.232,34.887 91.149,37.203 L120.873,37.203 C121.889,39.372 122.783,41.606 123.553,43.902 L88.469,43.902 C87.738,46.085 87.123,48.32 86.63,50.6 L125.389,50.6 C126.316,54.92 126.81,59.402 126.81,64 C126.81,71.025 125.666,77.787 123.553,84.102 L88.469,84.102 C89.238,86.397 90.133,88.633 91.147,90.805 L120.873,90.805 C119.787,93.115 118.572,95.352 117.223,97.506 L94.794,97.506 C96.258,99.84 97.871,102.078 99.621,104.201 L112.4,104.201 C110.436,106.588 108.301,108.828 106.009,110.902 C117.24,121.078 132.135,127.277 148.488,127.277 C183.435,127.277 211.766,98.949 211.766,64 C211.766,29.055 183.435,0.721 148.488,0.721" id="Fill-3" fill="#FF9900"></path>
            <path d="M203.332,99.273 C203.332,98.145 204.248,97.23 205.377,97.23 C206.508,97.23 207.42,98.145 207.42,99.273 C207.42,100.402 206.508,101.318 205.377,101.318 C204.248,101.318 203.332,100.402 203.332,99.273 L203.332,99.273 Z M205.377,100.828 C206.232,100.828 206.93,100.131 206.93,99.273 C206.93,98.412 206.232,97.721 205.377,97.721 C204.518,97.721 203.822,98.412 203.822,99.273 C203.822,100.131 204.518,100.828 205.377,100.828 L205.377,100.828 Z M205.1,100.17 L204.68,100.17 L204.68,98.377 L205.441,98.377 C205.598,98.377 205.76,98.377 205.9,98.463 C206.043,98.565 206.127,98.736 206.127,98.914 C206.127,99.117 206.01,99.307 205.815,99.379 L206.147,100.17 L205.682,100.17 L205.406,99.461 L205.1,99.461 L205.1,100.17 L205.1,100.17 Z M205.1,99.152 L205.332,99.152 C205.418,99.152 205.51,99.158 205.588,99.117 C205.656,99.072 205.693,98.992 205.693,98.91 C205.693,98.842 205.647,98.762 205.59,98.727 C205.516,98.684 205.4,98.693 205.322,98.693 L205.1,98.693 L205.1,99.152 L205.1,99.152 Z" id="Fill-4" fill="#FF9900"></path>
            <path d="M48.756,70.928 C48.036,70.846 47.717,70.82 47.222,70.82 C43.329,70.82 41.36,72.156 41.36,74.795 C41.36,76.42 42.321,77.453 43.821,77.453 C46.62,77.453 48.637,74.789 48.756,70.928 L48.756,70.928 Z M53.753,82.559 L48.06,82.559 L48.191,79.853 C46.455,81.99 44.138,83.01 40.991,83.01 C37.269,83.01 34.715,80.103 34.715,75.881 C34.715,69.523 39.155,65.816 46.776,65.816 C47.557,65.816 48.554,65.889 49.577,66.018 C49.789,65.156 49.845,64.79 49.845,64.325 C49.845,62.597 48.649,61.949 45.44,61.949 C42.079,61.915 39.307,62.752 38.167,63.126 C38.24,62.692 39.121,57.255 39.121,57.255 C42.542,56.249 44.8,55.873 47.341,55.873 C53.242,55.873 56.367,58.521 56.36,63.527 C56.372,64.87 56.149,66.522 55.803,68.699 C55.207,72.478 53.927,80.586 53.753,82.559 L53.753,82.559 Z" id="Fill-5" fill="#000066"></path>
            <polyline id="Fill-6" fill="#000066" points="31.84 82.559 24.97 82.559 28.908 57.887 20.119 82.559 15.438 82.559 14.859 58.025 10.723 82.559 4.292 82.559 9.664 50.462 19.543 50.462 20.14 68.428 26.167 50.462 37.154 50.462 31.84 82.559"></polyline>
            <path d="M156.977,70.928 C156.256,70.846 155.941,70.82 155.447,70.82 C151.551,70.82 149.584,72.156 149.584,74.795 C149.584,76.42 150.541,77.453 152.045,77.453 C154.842,77.453 156.859,74.789 156.977,70.928 L156.977,70.928 Z M161.977,82.559 L156.285,82.559 L156.414,79.853 C154.678,81.99 152.361,83.01 149.217,83.01 C145.49,83.01 142.94,80.103 142.94,75.881 C142.94,69.523 147.381,65.816 155,65.816 C155.779,65.816 156.775,65.889 157.799,66.018 C158.012,65.156 158.066,64.79 158.066,64.325 C158.066,62.597 156.871,61.949 153.662,61.949 C150.301,61.915 147.529,62.752 146.387,63.126 C146.463,62.692 147.346,57.255 147.346,57.255 C150.766,56.249 153.025,55.873 155.562,55.873 C161.467,55.873 164.588,58.521 164.582,63.527 C164.594,64.87 164.373,66.522 164.025,68.699 C163.432,72.478 162.148,80.586 161.977,82.559 L161.977,82.559 Z" id="Fill-7" fill="#000066"></path>
            <path d="M84.284,82.162 C82.403,82.754 80.937,83.01 79.348,83.01 C75.836,83.01 73.919,80.992 73.919,77.275 C73.871,76.121 74.424,73.086 74.861,70.318 C75.258,67.879 77.84,52.505 77.84,52.505 L84.668,52.505 L83.872,56.456 L87.996,56.456 L87.065,62.73 L82.925,62.73 C82.132,67.693 81.001,73.877 80.989,74.697 C80.989,76.043 81.707,76.631 83.341,76.631 C84.125,76.631 84.73,76.551 85.193,76.385 L84.284,82.162" id="Fill-8" fill="#000066"></path>
            <path d="M105.22,81.951 C102.874,82.668 100.613,83.018 98.214,83.01 C90.569,83 86.585,79.01 86.585,71.365 C86.585,62.443 91.652,55.873 98.536,55.873 C104.165,55.873 107.762,59.551 107.762,65.316 C107.762,67.234 107.516,69.102 106.919,71.738 L93.32,71.738 C92.861,75.525 95.283,77.102 99.258,77.102 C101.7,77.102 103.906,76.598 106.356,75.461 L105.22,81.951 L105.22,81.951 Z M101.381,66.477 C101.421,65.932 102.105,61.817 98.203,61.817 C96.029,61.817 94.473,63.475 93.842,66.477 L101.381,66.477 L101.381,66.477 Z" id="Fill-9" fill="#000066"></path>
            <path d="M57.874,64.71 C57.874,68.008 59.474,70.285 63.104,71.996 C65.885,73.305 66.318,73.691 66.318,74.877 C66.318,76.502 65.089,77.24 62.373,77.24 C60.322,77.24 58.415,76.918 56.216,76.207 C56.216,76.207 55.316,81.963 55.273,82.238 C56.833,82.576 58.226,82.891 62.421,83.01 C69.669,83.01 73.018,80.25 73.018,74.285 C73.018,70.699 71.618,68.594 68.175,67.01 C65.296,65.69 64.963,65.393 64.963,64.175 C64.963,62.764 66.107,62.043 68.326,62.043 C69.674,62.043 71.516,62.187 73.263,62.434 L74.24,56.38 C72.461,56.097 69.764,55.873 68.194,55.873 C60.509,55.873 57.849,59.886 57.874,64.71" id="Fill-10" fill="#000066"></path>
            <path d="M138.631,56.562 C140.539,56.562 142.32,57.058 144.77,58.294 L145.895,51.329 C144.885,50.933 141.344,48.612 138.344,48.612 C133.748,48.612 129.857,50.896 127.127,54.657 C123.139,53.337 121.498,56.005 119.49,58.665 L117.705,59.081 C117.84,58.206 117.963,57.336 117.924,56.456 L111.611,56.456 C110.752,64.537 109.225,72.719 108.029,80.803 L107.717,82.559 L114.59,82.559 C115.736,75.105 116.363,70.334 116.746,67.102 L119.334,65.668 C119.723,64.227 120.93,63.743 123.357,63.802 C123.041,65.504 122.869,67.297 122.869,69.152 C122.869,77.693 127.482,83.01 134.875,83.01 C136.779,83.01 138.416,82.76 140.949,82.07 L142.152,74.756 C139.875,75.875 138.01,76.402 136.318,76.402 C132.324,76.402 129.908,73.453 129.908,68.582 C129.908,61.513 133.5,56.562 138.631,56.562" id="Fill-11" fill="#000066"></path>
            <path d="M196.793,50.462 L195.266,59.735 C193.391,57.264 191.373,55.474 188.709,55.474 C185.242,55.474 182.088,58.102 180.022,61.972 C177.144,61.375 174.172,60.36 174.172,60.36 L174.17,60.385 C174.398,58.222 174.496,56.906 174.473,56.456 L168.162,56.456 C167.305,64.537 165.775,72.719 164.582,80.803 L164.266,82.559 L171.141,82.559 C172.068,76.535 172.777,71.527 173.301,67.561 C175.65,65.438 176.826,63.59 179.195,63.71 C178.145,66.252 177.531,69.178 177.531,72.18 C177.531,78.703 180.83,83.01 185.826,83.01 C188.344,83.01 190.275,82.141 192.16,80.129 L191.836,82.557 L198.336,82.557 L203.568,50.462 L196.793,50.462 L196.793,50.462 Z M188.201,76.529 C185.863,76.529 184.68,74.795 184.68,71.383 C184.68,66.252 186.893,62.615 190.008,62.615 C192.369,62.615 193.648,64.411 193.648,67.727 C193.648,72.902 191.398,76.529 188.201,76.529 L188.201,76.529 Z" id="Fill-12" fill="#000066"></path>
            <polyline id="Fill-13" fill="#FFFFFF" points="33.817 80.654 26.948 80.654 30.884 55.982 22.097 80.654 17.415 80.654 16.836 56.125 12.7 80.654 6.27 80.654 11.641 48.56 21.52 48.56 21.795 68.428 28.461 48.56 39.13 48.56 33.817 80.654"></polyline>
            <path d="M50.734,69.027 C50.014,68.943 49.696,68.92 49.201,68.92 C45.307,68.92 43.336,70.254 43.336,72.891 C43.336,74.514 44.298,75.553 45.799,75.553 C48.598,75.553 50.615,72.889 50.734,69.027 L50.734,69.027 Z M55.73,80.654 L50.039,80.654 L50.169,77.951 C48.433,80.086 46.116,81.107 42.969,81.107 C39.246,81.107 36.694,78.197 36.694,73.975 C36.694,67.617 41.133,63.915 48.754,63.915 C49.534,63.915 50.532,63.986 51.554,64.118 C51.767,63.254 51.823,62.887 51.823,62.419 C51.823,60.693 50.626,60.05 47.418,60.05 C44.055,60.01 41.285,60.847 40.145,61.22 C40.217,60.788 41.098,55.351 41.098,55.351 C44.521,54.347 46.779,53.968 49.32,53.968 C55.219,53.968 58.343,56.619 58.337,61.623 C58.349,62.964 58.127,64.623 57.782,66.795 C57.185,70.572 55.905,78.684 55.73,80.654 L55.73,80.654 Z" id="Fill-14" fill="#FFFFFF"></path>
            <path d="M147.871,49.424 L146.746,56.389 C144.293,55.156 142.516,54.657 140.609,54.657 C135.48,54.657 131.883,59.614 131.883,66.684 C131.883,71.555 134.301,74.498 138.295,74.498 C139.986,74.498 141.855,73.975 144.129,72.852 L142.922,80.166 C140.393,80.856 138.756,81.107 136.852,81.107 C129.455,81.107 124.848,75.789 124.848,67.25 C124.848,55.776 131.217,47.757 140.32,47.757 C143.32,47.757 146.863,49.028 147.871,49.424" id="Fill-15" fill="#FFFFFF"></path>
            <path d="M158.953,69.027 C158.236,68.943 157.918,68.92 157.424,68.92 C153.531,68.92 151.56,70.254 151.56,72.891 C151.56,74.514 152.522,75.553 154.022,75.553 C156.818,75.553 158.838,72.889 158.953,69.027 L158.953,69.027 Z M163.953,80.654 L158.262,80.654 L158.391,77.951 C156.654,80.086 154.338,81.107 151.193,81.107 C147.467,81.107 144.918,78.197 144.918,73.975 C144.918,67.617 149.354,63.915 156.977,63.915 C157.756,63.915 158.752,63.986 159.773,64.118 C159.986,63.254 160.043,62.887 160.043,62.419 C160.043,60.693 158.85,60.05 155.639,60.05 C152.279,60.01 149.51,60.847 148.367,61.22 C148.44,60.788 149.32,55.351 149.32,55.351 C152.744,54.347 155,53.968 157.541,53.968 C163.44,53.968 166.566,56.619 166.559,61.623 C166.572,62.964 166.35,64.623 166.004,66.795 C165.408,70.572 164.129,78.684 163.953,80.654 L163.953,80.654 Z" id="Fill-16" fill="#FFFFFF"></path>
            <path d="M86.26,80.258 C84.381,80.85 82.915,81.107 81.326,81.107 C77.814,81.107 75.896,79.088 75.896,75.375 C75.848,74.217 76.403,71.188 76.839,68.416 C77.235,65.975 79.818,50.603 79.818,50.603 L86.646,50.603 L85.848,54.553 L89.353,54.553 L88.42,60.825 L84.903,60.825 C84.11,65.793 82.978,71.973 82.965,72.793 C82.965,74.143 83.685,74.727 85.319,74.727 C86.101,74.727 86.707,74.65 87.171,74.481 L86.26,80.258" id="Fill-17" fill="#FFFFFF"></path>
            <path d="M107.199,80.051 C104.853,80.769 102.586,81.109 100.191,81.107 C92.545,81.102 88.562,77.107 88.562,69.463 C88.562,60.538 93.63,53.968 100.509,53.968 C106.144,53.968 109.738,57.646 109.738,63.419 C109.738,65.332 109.488,67.199 108.898,69.836 L95.299,69.836 C94.837,73.623 97.262,75.203 101.233,75.203 C103.676,75.203 105.882,74.697 108.336,73.557 L107.199,80.051 L107.199,80.051 Z M103.361,64.572 C103.398,64.026 104.084,59.913 100.182,59.913 C98.008,59.913 96.453,61.574 95.819,64.572 L103.361,64.572 L103.361,64.572 Z" id="Fill-18" fill="#FFFFFF"></path>
            <path d="M59.85,62.804 C59.85,66.109 61.452,68.381 65.083,70.094 C67.864,71.402 68.294,71.789 68.294,72.975 C68.294,74.602 67.068,75.336 64.349,75.336 C62.299,75.336 60.393,75.018 58.193,74.309 C58.193,74.309 57.293,80.06 57.25,80.332 C58.811,80.674 60.204,80.986 64.398,81.107 C71.648,81.107 74.996,78.348 74.996,72.383 C74.996,68.795 73.594,66.691 70.153,65.111 C67.273,63.786 66.942,63.493 66.942,62.273 C66.942,60.862 68.083,60.136 70.304,60.136 C71.651,60.136 73.494,60.286 75.24,60.532 L76.218,54.479 C74.439,54.198 71.743,53.968 70.171,53.968 C62.486,53.968 59.827,57.982 59.85,62.804" id="Fill-19" fill="#FFFFFF"></path>
            <path d="M200.312,80.654 L193.815,80.654 L194.137,78.225 C192.252,80.238 190.32,81.107 187.803,81.107 C182.81,81.107 179.508,76.805 179.508,70.275 C179.508,61.593 184.629,54.275 190.685,54.275 C193.35,54.275 195.367,55.363 197.246,57.835 L198.77,48.56 L205.545,48.56 L200.312,80.654 L200.312,80.654 Z M190.178,74.623 C193.379,74.623 195.625,70.998 195.625,65.828 C195.625,62.511 194.346,60.71 191.984,60.71 C188.869,60.71 186.656,64.347 186.656,69.48 C186.656,72.897 187.842,74.623 190.178,74.623 L190.178,74.623 Z" id="Fill-20" fill="#FFFFFF"></path>
            <path d="M170.141,54.553 C169.281,62.632 167.754,70.815 166.559,78.898 L166.246,80.654 L173.117,80.654 C175.574,64.692 176.166,61.577 180.022,61.966 C180.635,58.699 181.777,55.838 182.629,54.396 C179.752,53.796 178.145,55.422 176.039,58.512 C176.207,57.175 176.51,55.878 176.453,54.553 L170.141,54.553" id="Fill-21" fill="#FFFFFF"></path>
            <path d="M113.592,54.553 C112.728,62.632 111.199,70.815 110.006,78.898 L109.693,80.654 L116.566,80.654 C119.025,64.692 119.615,61.577 123.465,61.966 C124.082,58.699 125.227,55.838 126.076,54.396 C123.201,53.796 121.592,55.422 119.49,58.512 C119.656,57.175 119.961,55.878 119.9,54.553 L113.592,54.553" id="Fill-22" fill="#FFFFFF"></path>
            <path d="M203.33,78.611 C203.33,77.478 204.248,76.566 205.371,76.566 C206.502,76.566 207.414,77.478 207.414,78.611 C207.414,79.736 206.502,80.654 205.371,80.654 C204.248,80.654 203.33,79.736 203.33,78.611 L203.33,78.611 Z M205.371,80.164 C206.232,80.164 206.928,79.467 206.928,78.611 C206.928,77.754 206.232,77.057 205.371,77.057 C204.514,77.057 203.82,77.754 203.82,78.611 C203.82,79.467 204.514,80.164 205.371,80.164 L205.371,80.164 Z M205.096,79.504 L204.678,79.504 L204.678,77.711 L205.437,77.711 C205.596,77.711 205.756,77.717 205.895,77.803 C206.043,77.9 206.123,78.072 206.123,78.25 C206.123,78.453 206.006,78.643 205.815,78.715 L206.145,79.504 L205.68,79.504 L205.404,78.795 L205.096,78.795 L205.096,79.504 L205.096,79.504 Z M205.096,78.488 L205.328,78.488 C205.412,78.488 205.51,78.496 205.584,78.453 C205.652,78.41 205.687,78.324 205.687,78.246 C205.687,78.178 205.647,78.102 205.588,78.06 C205.516,78.02 205.398,78.031 205.32,78.031 L205.096,78.031 L205.096,78.488 L205.096,78.488 Z" id="Fill-23" fill="#FFFFFF"></path>
        </g>
    </g>
</svg>