<?xml version="1.0" encoding="UTF-8" standalone="no"?><svg width="566" height="324" viewBox="0 0 566 324" xmlns="http://www.w3.org/2000/svg" xmlns:xlink="http://www.w3.org/1999/xlink"><svg width="222" height="138" viewBox="-5 -5 222 138" id="mastercard-logo"><title>mastercard-logo</title><g fill="none" fill-rule="evenodd"><path d="M126.81 64c0 34.95-28.33 63.277-63.276 63.277C28.584 127.277.254 98.95.254 64 .253 29.052 28.583.72 63.533.72 98.48.72 126.81 29.053 126.81 64" fill="#C00"/><path d="M148.488.72c-16.353 0-31.25 6.204-42.482 16.38a64.376 64.376 0 0 0-6.385 6.7h12.784a64.78 64.78 0 0 1 4.824 6.7H94.794a63.566 63.566 0 0 0-3.645 6.703h29.723a63.022 63.022 0 0 1 2.68 6.7H88.47a63.066 63.066 0 0 0-1.84 6.697h38.76a63.807 63.807 0 0 1 1.42 13.4 63.253 63.253 0 0 1-3.257 20.102H88.47a63.633 63.633 0 0 0 2.677 6.703h29.726a63.57 63.57 0 0 1-3.65 6.7h-22.43a63.962 63.962 0 0 0 4.828 6.696h12.78a63.13 63.13 0 0 1-6.39 6.702c11.23 10.176 26.125 16.375 42.478 16.375 34.947 0 63.278-28.328 63.278-63.277 0-34.945-28.33-63.28-63.278-63.28" fill="#F90"/><path d="M203.332 99.273a2.044 2.044 0 1 1 4.09.003 2.044 2.044 0 0 1-4.09-.003zm2.045 1.555c.855 0 1.553-.697 1.553-1.555 0-.86-.698-1.552-1.553-1.552-.86 0-1.555.692-1.555 1.553 0 .858.696 1.555 1.555 1.555zm-.277-.658h-.42v-1.793h.76c.158 0 .32 0 .46.086a.555.555 0 0 1 .227.45.49.49 0 0 1-.312.466l.332.79h-.465l-.276-.71h-.306v.71zm0-1.018h.232c.086 0 .178.006.256-.035a.247.247 0 0 0 .105-.207.236.236 0 0 0-.103-.183c-.074-.043-.19-.034-.268-.034h-.222v.46z" fill="#F90"/><path d="M48.756 70.928c-.72-.082-1.04-.108-1.534-.108-3.893 0-5.862 1.336-5.862 3.975 0 1.625.96 2.658 2.46 2.658 2.8 0 4.817-2.664 4.936-6.525zm4.997 11.63H48.06l.13-2.705c-1.735 2.137-4.052 3.157-7.2 3.157-3.72 0-6.275-2.907-6.275-7.13 0-6.357 4.44-10.064 12.06-10.064.782 0 1.78.073 2.802.202.212-.862.268-1.228.268-1.693 0-1.728-1.196-2.376-4.405-2.376-3.36-.035-6.133.802-7.273 1.176.073-.434.954-5.87.954-5.87 3.422-1.007 5.68-1.383 8.22-1.383 5.902 0 9.027 2.648 9.02 7.654.012 1.343-.21 2.995-.557 5.172-.596 3.778-1.876 11.886-2.05 13.86zM31.84 82.56h-6.87l3.938-24.673-8.79 24.672h-4.68l-.58-24.535-4.135 24.534h-6.43l5.37-32.098h9.88l.597 17.966 6.027-17.966h10.987L31.84 82.56M156.977 70.928c-.72-.082-1.036-.108-1.53-.108-3.896 0-5.863 1.336-5.863 3.975 0 1.625.957 2.658 2.46 2.658 2.798 0 4.815-2.664 4.933-6.525zm5 11.63h-5.692l.13-2.705c-1.737 2.137-4.054 3.157-7.198 3.157-3.727 0-6.277-2.907-6.277-7.13 0-6.357 4.44-10.064 12.06-10.064.78 0 1.775.073 2.8.202.212-.862.266-1.228.266-1.693 0-1.728-1.195-2.376-4.404-2.376-3.36-.035-6.133.802-7.275 1.176.076-.434.96-5.87.96-5.87 3.42-1.007 5.678-1.383 8.215-1.383 5.905 0 9.026 2.648 9.02 7.654.012 1.343-.21 2.995-.557 5.172-.593 3.778-1.877 11.886-2.048 13.86zM84.284 82.162c-1.88.592-3.347.848-4.936.848-3.512 0-5.43-2.018-5.43-5.735-.047-1.154.506-4.19.943-6.957.398-2.44 2.98-17.813 2.98-17.813h6.828l-.796 3.95h4.124l-.93 6.275h-4.14C82.13 67.693 81 73.877 80.988 74.697c0 1.346.717 1.934 2.35 1.934.785 0 1.39-.08 1.853-.245l-.91 5.777M105.22 81.95c-2.346.718-4.607 1.068-7.006 1.06-7.645-.01-11.63-4-11.63-11.645 0-8.922 5.068-15.492 11.952-15.492 5.63 0 9.226 3.678 9.226 9.443 0 1.918-.246 3.786-.843 6.422h-13.6c-.46 3.787 1.963 5.364 5.938 5.364 2.442 0 4.648-.504 7.098-1.64l-1.136 6.49zm-3.84-15.473c.04-.545.725-4.66-3.177-4.66-2.174 0-3.73 1.658-4.36 4.66h7.538zM57.874 64.71c0 3.298 1.6 5.575 5.23 7.286 2.78 1.31 3.214 1.695 3.214 2.88 0 1.626-1.23 2.364-3.945 2.364-2.05 0-3.958-.322-6.157-1.033l-.943 6.03c1.56.34 2.953.654 7.148.773 7.25 0 10.598-2.76 10.598-8.725 0-3.586-1.4-5.69-4.843-7.275-2.88-1.32-3.212-1.617-3.212-2.835 0-1.41 1.144-2.132 3.363-2.132 1.348 0 3.19.144 4.937.39l.977-6.053c-1.78-.283-4.476-.507-6.046-.507-7.685 0-10.345 4.013-10.32 8.837M138.63 56.562c1.91 0 3.69.496 6.14 1.732l1.125-6.965c-1.01-.397-4.55-2.718-7.55-2.718-4.597 0-8.488 2.284-11.218 6.045-3.988-1.32-5.63 1.348-7.637 4.008l-1.785.416c.135-.874.258-1.744.22-2.624h-6.314c-.858 8.08-2.385 16.263-3.58 24.347l-.313 1.756h6.873c1.146-7.455 1.773-12.226 2.156-15.458l2.588-1.434c.39-1.44 1.596-1.925 4.023-1.866a29.33 29.33 0 0 0-.488 5.35c0 8.54 4.612 13.858 12.005 13.858 1.904 0 3.54-.25 6.074-.94l1.202-7.314c-2.277 1.12-4.142 1.646-5.834 1.646-3.994 0-6.41-2.95-6.41-7.82 0-7.07 3.592-12.02 8.723-12.02M196.793 50.462l-1.527 9.273c-1.875-2.47-3.893-4.26-6.557-4.26-3.468 0-6.622 2.627-8.688 6.497-2.878-.597-5.85-1.612-5.85-1.612l-.002.025c.228-2.163.326-3.48.303-3.93h-6.31c-.858 8.082-2.388 16.264-3.58 24.348l-.317 1.756h6.875a717.542 717.542 0 0 0 2.16-15c2.35-2.122 3.526-3.97 5.895-3.85a22.395 22.395 0 0 0-1.664 8.47c0 6.523 3.3 10.83 8.296 10.83 2.518 0 4.45-.87 6.334-2.88l-.324 2.427h6.5l5.232-32.095h-6.775zM188.2 76.53c-2.337 0-3.52-1.735-3.52-5.147 0-5.13 2.213-8.768 5.328-8.768 2.36 0 3.64 1.796 3.64 5.112 0 5.175-2.25 8.802-5.447 8.802z" fill="#006"/><path fill="#FFF" d="M33.817 80.654h-6.87l3.937-24.672-8.787 24.672h-4.682l-.58-24.53-4.135 24.53H6.27l5.37-32.094h9.88l.275 19.868L28.46 48.56h10.67l-5.313 32.094M50.734 69.027c-.72-.084-1.038-.107-1.533-.107-3.893 0-5.864 1.334-5.864 3.97 0 1.624.962 2.663 2.463 2.663 2.798 0 4.815-2.664 4.934-6.526zm4.996 11.627h-5.69l.13-2.703c-1.737 2.136-4.054 3.157-7.2 3.157-3.724 0-6.276-2.91-6.276-7.132 0-6.358 4.44-10.06 12.06-10.06.78 0 1.778.07 2.8.203.213-.864.27-1.23.27-1.7 0-1.725-1.198-2.368-4.406-2.368-3.363-.04-6.133.797-7.273 1.17.072-.432.953-5.87.953-5.87 3.423-1.003 5.68-1.382 8.222-1.382 5.9 0 9.023 2.65 9.017 7.655.012 1.34-.21 3-.555 5.172-.597 3.777-1.877 11.89-2.052 13.86zM147.87 49.424l-1.124 6.965c-2.453-1.234-4.23-1.733-6.137-1.733-5.13 0-8.727 4.957-8.727 12.027 0 4.87 2.418 7.814 6.412 7.814 1.69 0 3.56-.523 5.834-1.646l-1.208 7.314c-2.53.69-4.166.94-6.07.94-7.397 0-12.004-5.317-12.004-13.856 0-11.474 6.37-19.493 15.472-19.493 3 0 6.543 1.27 7.55 1.667M158.953 69.027c-.717-.084-1.035-.107-1.53-.107-3.892 0-5.863 1.334-5.863 3.97 0 1.624.962 2.663 2.462 2.663 2.796 0 4.816-2.664 4.93-6.526zm5 11.627h-5.69l.128-2.703c-1.736 2.136-4.052 3.157-7.197 3.157-3.726 0-6.275-2.91-6.275-7.132 0-6.358 4.436-10.06 12.06-10.06.778 0 1.774.07 2.795.203.213-.864.27-1.23.27-1.7 0-1.725-1.193-2.368-4.404-2.368-3.36-.04-6.13.797-7.273 1.17.073-.432.953-5.87.953-5.87 3.424-1.003 5.68-1.382 8.22-1.382 5.9 0 9.026 2.65 9.02 7.655.012 1.34-.21 3-.556 5.172-.596 3.777-1.875 11.89-2.05 13.86zM86.26 80.258c-1.88.592-3.345.85-4.934.85-3.512 0-5.43-2.02-5.43-5.733-.048-1.158.507-4.187.943-6.96.395-2.44 2.978-17.812 2.978-17.812h6.828l-.798 3.95h3.505l-.933 6.272h-3.517c-.793 4.968-1.925 11.148-1.938 11.968 0 1.35.72 1.934 2.354 1.934.78 0 1.387-.077 1.85-.246l-.91 5.778M107.2 80.05a23.41 23.41 0 0 1-7.01 1.057c-7.645-.005-11.628-4-11.628-11.644 0-8.925 5.068-15.495 11.947-15.495 5.634 0 9.228 3.678 9.228 9.45 0 1.914-.25 3.78-.84 6.418h-13.6c-.46 3.787 1.964 5.367 5.935 5.367 2.443 0 4.65-.506 7.103-1.646L107.2 80.05zm-3.84-15.478c.038-.546.724-4.66-3.178-4.66-2.174 0-3.73 1.662-4.363 4.66h7.54zM59.85 62.804c0 3.305 1.602 5.577 5.233 7.29 2.78 1.308 3.21 1.695 3.21 2.88 0 1.628-1.225 2.362-3.944 2.362-2.05 0-3.957-.318-6.157-1.027l-.943 6.022c1.56.342 2.954.654 7.148.775 7.25 0 10.598-2.76 10.598-8.724 0-3.588-1.402-5.692-4.843-7.272-2.88-1.324-3.21-1.617-3.21-2.837 0-1.41 1.14-2.137 3.36-2.137 1.348 0 3.19.15 4.937.396l.978-6.053c-1.78-.282-4.475-.512-6.047-.512-7.684 0-10.343 4.014-10.32 8.836M200.312 80.654h-6.497l.322-2.43c-1.885 2.014-3.817 2.883-6.334 2.883-4.993 0-8.295-4.302-8.295-10.832 0-8.682 5.12-16 11.177-16 2.665 0 4.682 1.088 6.56 3.56l1.525-9.275h6.775l-5.233 32.094zm-10.134-6.03c3.2 0 5.447-3.626 5.447-8.796 0-3.317-1.28-5.118-3.64-5.118-3.116 0-5.33 3.637-5.33 8.77 0 3.417 1.187 5.143 3.523 5.143zM170.14 54.553c-.86 8.08-2.386 16.262-3.58 24.345l-.314 1.756h6.87c2.458-15.962 3.05-19.077 6.906-18.688.613-3.267 1.755-6.128 2.607-7.57-2.878-.6-4.485 1.026-6.59 4.116.167-1.337.47-2.634.413-3.96h-6.312M113.592 54.553c-.864 8.08-2.393 16.262-3.586 24.345l-.313 1.756h6.873c2.46-15.962 3.05-19.077 6.9-18.688.616-3.267 1.76-6.128 2.61-7.57-2.875-.6-4.484 1.026-6.586 4.116.166-1.337.47-2.634.41-3.96h-6.308M203.33 78.61c0-1.132.918-2.044 2.04-2.044a2.04 2.04 0 0 1 2.044 2.045 2.043 2.043 0 0 1-2.043 2.044 2.047 2.047 0 0 1-2.04-2.043zm2.04 1.554c.862 0 1.558-.697 1.558-1.553s-.696-1.553-1.557-1.553a1.553 1.553 0 0 0 0 3.107zm-.274-.66h-.418V77.71h.76c.158 0 .318.007.457.093a.53.53 0 0 1 .228.447.49.49 0 0 1-.308.465l.33.79h-.465l-.276-.71h-.308v.71zm0-1.016h.232c.084 0 .182.008.256-.035a.247.247 0 0 0 .103-.207.242.242 0 0 0-.1-.186c-.07-.04-.19-.03-.267-.03h-.224v.458z"/></g></svg><svg width="118" height="38" viewBox="-5 -5 118 38" id="paypal-logo" x="222" y="138"><title>paypal-logo</title><defs><path id="ba" d="M10.46.042H0v24.21h20.918V.042h-10.46z"/><path id="bc" d="M53.68.042H0v27.23h107.36V.042H53.68z"/></defs><g fill="none" fill-rule="evenodd"><mask id="bb" fill="#fff"><use xlink:href="#ba"/></mask><path d="M19.648 2.095C18.388.658 16.108.042 13.192.042H4.73a1.21 1.21 0 0 0-1.197 1.022L.01 23.412c-.07.44.27.84.717.84H5.95l1.314-8.323-.04.26a1.208 1.208 0 0 1 1.19-1.023H10.9c4.877 0 8.696-1.98 9.812-7.71.033-.17.06-.336.086-.497-.14-.074-.14-.074 0 0 .333-2.118-.002-3.56-1.148-4.865" fill="#27346A" mask="url(#bb)"/><path d="M83.608 12.73c-.32 2.097-1.92 2.097-3.47 2.097h-.882l.62-3.916a.486.486 0 0 1 .48-.41h.404c1.054 0 2.05 0 2.564.6.307.36.4.894.284 1.63m-.674-5.472h-5.842c-.4 0-.74.29-.803.685l-2.363 14.98a.488.488 0 0 0 .48.564h3a.57.57 0 0 0 .56-.48l.67-4.247a.812.812 0 0 1 .802-.685h1.847c3.848 0 6.07-1.863 6.65-5.554.26-1.612.01-2.88-.745-3.77-.83-.975-2.304-1.492-4.258-1.492" fill="#2790C3"/><path d="M41.94 12.73c-.32 2.097-1.922 2.097-3.47 2.097h-.883l.62-3.916a.486.486 0 0 1 .48-.41h.404c1.055 0 2.05 0 2.565.6.307.36.4.894.284 1.63m-.675-5.472h-5.842c-.4 0-.74.29-.803.685l-2.362 14.98a.488.488 0 0 0 .48.564h2.79c.4 0 .74-.29.802-.685l.638-4.042a.81.81 0 0 1 .802-.685h1.848c3.848 0 6.07-1.863 6.65-5.554.26-1.612.01-2.88-.745-3.77-.83-.975-2.304-1.492-4.258-1.492M54.828 18.108c-.27 1.598-1.54 2.67-3.158 2.67-.81 0-1.46-.26-1.878-.754-.414-.49-.57-1.188-.44-1.965.253-1.585 1.542-2.693 3.136-2.693.795 0 1.44.264 1.865.762.43.502.598 1.204.475 1.978m3.9-5.446h-2.8a.486.486 0 0 0-.48.412l-.123.78-.195-.282c-.607-.88-1.957-1.173-3.305-1.173-3.09 0-5.73 2.34-6.245 5.626-.267 1.64.113 3.205 1.042 4.298.853 1.004 2.07 1.422 3.523 1.422 2.492 0 3.873-1.6 3.873-1.6l-.125.778a.486.486 0 0 0 .48.562h2.52c.4 0 .74-.29.802-.684l1.513-9.577a.487.487 0 0 0-.48-.563" fill="#27346A"/><path d="M96.497 18.108c-.27 1.598-1.54 2.67-3.158 2.67-.812 0-1.462-.26-1.88-.754-.413-.49-.57-1.188-.438-1.965.252-1.585 1.542-2.693 3.135-2.693.795 0 1.44.264 1.865.762.43.502.598 1.204.475 1.978m3.9-5.446h-2.8a.488.488 0 0 0-.48.412l-.123.78-.196-.282c-.605-.88-1.956-1.173-3.304-1.173-3.09 0-5.73 2.34-6.245 5.626-.268 1.64.112 3.205 1.04 4.298.855 1.004 2.073 1.422 3.524 1.422 2.492 0 3.873-1.6 3.873-1.6l-.125.778a.486.486 0 0 0 .48.562h2.52c.4 0 .74-.29.803-.684l1.512-9.577a.487.487 0 0 0-.48-.563" fill="#2790C3"/><mask id="bd" fill="#fff"><use xlink:href="#bc"/></mask><path d="M73.626 12.662h-2.812a.81.81 0 0 0-.67.357l-3.88 5.71-1.644-5.488a.812.812 0 0 0-.778-.58H61.08c-.335 0-.57.33-.462.645l3.096 9.088-2.912 4.11a.486.486 0 0 0 .397.767h2.808c.266 0 .515-.13.667-.348l9.35-13.497a.487.487 0 0 0-.4-.765" fill="#27346A" mask="url(#bd)"/><path d="M103.693 7.67l-2.398 15.254a.487.487 0 0 0 .48.563h2.413c.4 0 .74-.29.8-.685l2.366-14.98a.488.488 0 0 0-.482-.564h-2.698a.486.486 0 0 0-.48.412" fill="#2790C3" mask="url(#bd)"/><path d="M19.648 2.095C18.388.658 16.108.042 13.192.042H4.73a1.21 1.21 0 0 0-1.197 1.022L.01 23.412c-.07.44.27.84.717.84H5.95l1.314-8.323-.04.26a1.208 1.208 0 0 1 1.19-1.023H10.9c4.877 0 8.696-1.98 9.812-7.71.033-.17.06-.336.086-.497-.14-.074-.14-.074 0 0 .333-2.118-.002-3.56-1.148-4.865" fill="#27346A" mask="url(#bd)"/><path d="M8.674 6.988a1.06 1.06 0 0 1 1.046-.894h6.635c.785 0 1.518.05 2.188.16a9.083 9.083 0 0 1 1.336.32c.328.108.635.237.916.386.333-2.118-.002-3.56-1.147-4.865C18.386.658 16.107.042 13.192.042H4.73a1.21 1.21 0 0 0-1.197 1.022L.01 23.41c-.07.443.27.84.716.84h5.226L8.674 6.99" fill="#27346A" mask="url(#bd)"/><path d="M20.796 6.96c-.025.162-.053.326-.086.496-1.116 5.73-4.935 7.71-9.812 7.71H8.415c-.596 0-1.1.435-1.192 1.024L5.59 26.538a.636.636 0 0 0 .628.735h4.404c.522 0 .965-.38 1.047-.894l.042-.226.83-5.26.053-.29a1.06 1.06 0 0 1 1.046-.895h.66c4.267 0 7.608-1.734 8.584-6.747.407-2.095.196-3.844-.882-5.073a4.2 4.2 0 0 0-1.206-.93" fill="#2790C3"/><path d="M19.63 6.495a9.233 9.233 0 0 0-1.086-.24 13.7 13.7 0 0 0-2.19-.16H9.72a1.06 1.06 0 0 0-1.046.895l-1.41 8.94-.04.26a1.207 1.207 0 0 1 1.19-1.023H10.9c4.878 0 8.696-1.98 9.812-7.71.033-.17.06-.335.087-.497a6.053 6.053 0 0 0-1.168-.465" fill="#20264F"/></g></svg><svg width="226" height="148" viewBox="-5 -5 226 148" id="visa-logo" x="340" y="176"><title>visa-logo</title><g fill="none" fill-rule="evenodd"><path fill="#FFF" d="M0 137.94h216V.79H0z"/><path fill="#F1AD2B" d="M3.597 134.425H212.4v-18.72H3.596z"/><path fill="#172E66" d="M3.597 23.11H212.4V4.39H3.596zM106.197 43.733L95.19 95.188H81.88l11.006-51.455h13.31zM162.2 76.96l7.01-19.325 4.03 19.324H162.2zm14.86 18.228h12.31l-10.755-51.455H167.26c-2.56 0-4.715 1.484-5.67 3.772l-19.975 47.683h13.98l2.776-7.684h17.077l1.614 7.684zM142.31 78.39c.057-13.58-18.773-14.332-18.648-20.4.04-1.844 1.8-3.807 5.645-4.31 1.906-.245 7.166-.444 13.13 2.303l2.33-10.916c-3.203-1.158-7.324-2.274-12.45-2.274-13.16 0-22.42 6.99-22.493 17.008-.084 7.41 6.614 11.54 11.65 14.007 5.19 2.52 6.93 4.14 6.905 6.392-.037 3.45-4.142 4.98-7.962 5.037-6.697.105-10.578-1.81-13.672-3.252l-2.416 11.28c3.115 1.426 8.856 2.668 14.8 2.73 13.99 0 23.138-6.907 23.18-17.605zM87.175 43.733l-21.57 51.455h-14.07L40.923 54.123c-.643-2.524-1.204-3.453-3.16-4.52-3.202-1.74-8.487-3.365-13.133-4.376l.313-1.494h22.652c2.886 0 5.48 1.92 6.14 5.244l5.608 29.777 13.848-35.02h13.986z"/></g></svg></svg>