<?xml version="1.0" encoding="UTF-8" standalone="no"?><svg width="566" height="324" viewBox="0 0 566 324" xmlns="http://www.w3.org/2000/svg" xmlns:xlink="http://www.w3.org/1999/xlink"><svg width="222" height="138" viewBox="-5 -5 222 138" id="mastercard-logo"><title>mastercard-logo</title><g fill="none" fill-rule="evenodd"><path d="M126.81 64c0 34.949-28.329 63.277-63.276 63.277C28.584 127.277.253 98.949.253 64 .253 29.052 28.584.721 63.534.721 98.481.721 126.81 29.052 126.81 64" fill="#C00"/><path d="M148.488.721c-16.353 0-31.25 6.203-42.482 16.379a64.376 64.376 0 0 0-6.385 6.699h12.783a64.779 64.779 0 0 1 4.824 6.702H94.794a63.566 63.566 0 0 0-3.645 6.702h29.724a63.022 63.022 0 0 1 2.68 6.699H88.469A63.066 63.066 0 0 0 86.63 50.6h38.759A63.807 63.807 0 0 1 126.81 64a63.253 63.253 0 0 1-3.257 20.102H88.469a63.633 63.633 0 0 0 2.678 6.703h29.726a63.571 63.571 0 0 1-3.65 6.701H94.794a63.962 63.962 0 0 0 4.827 6.695H112.4a63.129 63.129 0 0 1-6.391 6.701c11.231 10.176 26.126 16.375 42.479 16.375 34.947 0 63.278-28.328 63.278-63.277 0-34.945-28.331-63.279-63.278-63.279" fill="#F90"/><path d="M203.332 99.273a2.044 2.044 0 1 1 4.089.003 2.044 2.044 0 0 1-4.089-.003zm2.045 1.555c.855 0 1.553-.697 1.553-1.555 0-.861-.698-1.552-1.553-1.552a1.55 1.55 0 0 0-1.555 1.552c0 .858.696 1.555 1.555 1.555zm-.277-.658h-.42v-1.793h.761c.157 0 .319 0 .459.086a.555.555 0 0 1 .227.451.489.489 0 0 1-.312.465l.332.791h-.465l-.276-.709h-.306v.709zm0-1.018h.232c.086 0 .178.006.256-.035a.247.247 0 0 0 .105-.207.236.236 0 0 0-.103-.183c-.074-.043-.19-.034-.268-.034h-.222v.459z" fill="#F90"/><path d="M48.756 70.928c-.72-.082-1.039-.108-1.534-.108-3.893 0-5.862 1.336-5.862 3.975 0 1.625.961 2.658 2.461 2.658 2.799 0 4.816-2.664 4.935-6.525zm4.997 11.631H48.06l.131-2.706c-1.736 2.137-4.053 3.157-7.2 3.157-3.722 0-6.276-2.907-6.276-7.129 0-6.358 4.44-10.065 12.061-10.065.781 0 1.778.073 2.801.202.212-.862.268-1.228.268-1.693 0-1.728-1.196-2.376-4.405-2.376-3.361-.034-6.133.803-7.273 1.177.073-.434.954-5.871.954-5.871 3.421-1.006 5.679-1.382 8.22-1.382 5.901 0 9.026 2.648 9.019 7.654.012 1.343-.211 2.995-.557 5.172-.596 3.779-1.876 11.887-2.05 13.86zM31.84 82.559h-6.87l3.938-24.672-8.789 24.672h-4.681l-.579-24.534-4.136 24.534H4.292l5.372-32.097h9.879l.597 17.966 6.027-17.966h10.987L31.84 82.559M156.977 70.928c-.721-.082-1.036-.108-1.53-.108-3.896 0-5.863 1.336-5.863 3.975 0 1.625.957 2.658 2.461 2.658 2.797 0 4.814-2.664 4.932-6.525zm5 11.631h-5.692l.129-2.706c-1.736 2.137-4.053 3.157-7.197 3.157-3.727 0-6.277-2.907-6.277-7.129 0-6.358 4.441-10.065 12.06-10.065.779 0 1.775.073 2.799.202.213-.862.267-1.228.267-1.693 0-1.728-1.195-2.376-4.404-2.376-3.361-.034-6.133.803-7.275 1.177.076-.434.959-5.871.959-5.871 3.42-1.006 5.679-1.382 8.216-1.382 5.905 0 9.026 2.648 9.02 7.654.012 1.343-.209 2.995-.557 5.172-.593 3.779-1.877 11.887-2.048 13.86zM84.284 82.162c-1.881.592-3.347.848-4.936.848-3.512 0-5.429-2.018-5.429-5.735-.048-1.154.505-4.189.942-6.957.397-2.439 2.979-17.813 2.979-17.813h6.828l-.796 3.951h4.124l-.931 6.274h-4.14c-.793 4.963-1.924 11.147-1.936 11.967 0 1.346.718 1.934 2.352 1.934.784 0 1.389-.08 1.852-.246l-.909 5.777M105.22 81.951c-2.346.717-4.607 1.067-7.006 1.059-7.645-.01-11.629-4-11.629-11.645 0-8.922 5.067-15.492 11.951-15.492 5.629 0 9.226 3.678 9.226 9.443 0 1.918-.246 3.786-.843 6.422H93.32c-.459 3.787 1.963 5.364 5.938 5.364 2.442 0 4.648-.504 7.098-1.641l-1.136 6.49zm-3.839-15.474c.04-.545.724-4.66-3.178-4.66-2.174 0-3.73 1.658-4.361 4.66h7.539zM57.874 64.71c0 3.298 1.6 5.575 5.23 7.286 2.781 1.309 3.214 1.695 3.214 2.881 0 1.625-1.229 2.363-3.945 2.363-2.051 0-3.958-.322-6.157-1.033l-.943 6.031c1.56.338 2.953.653 7.148.772 7.248 0 10.597-2.76 10.597-8.725 0-3.586-1.4-5.691-4.843-7.275-2.879-1.32-3.212-1.617-3.212-2.835 0-1.411 1.144-2.132 3.363-2.132 1.348 0 3.19.144 4.937.391l.977-6.054c-1.779-.283-4.476-.507-6.046-.507-7.685 0-10.345 4.013-10.32 8.837M138.631 56.562c1.908 0 3.689.496 6.139 1.732l1.125-6.965c-1.01-.396-4.551-2.717-7.551-2.717-4.596 0-8.487 2.284-11.217 6.045-3.988-1.32-5.629 1.348-7.637 4.008l-1.785.416c.135-.875.258-1.745.219-2.625h-6.313c-.859 8.081-2.386 16.263-3.582 24.347l-.312 1.756h6.873c1.146-7.454 1.773-12.225 2.156-15.457l2.588-1.434c.389-1.441 1.596-1.925 4.023-1.866a29.33 29.33 0 0 0-.488 5.35c0 8.541 4.613 13.858 12.006 13.858 1.904 0 3.541-.25 6.074-.94l1.203-7.314c-2.277 1.119-4.142 1.646-5.834 1.646-3.994 0-6.41-2.949-6.41-7.82 0-7.069 3.592-12.02 8.723-12.02M196.793 50.462l-1.527 9.273c-1.875-2.471-3.893-4.261-6.557-4.261-3.467 0-6.621 2.628-8.687 6.498-2.878-.597-5.85-1.612-5.85-1.612l-.002.025c.228-2.163.326-3.479.303-3.929h-6.311c-.857 8.081-2.387 16.263-3.58 24.347l-.316 1.756h6.875a717.542 717.542 0 0 0 2.16-14.998c2.349-2.123 3.525-3.971 5.894-3.851a22.395 22.395 0 0 0-1.664 8.47c0 6.523 3.299 10.83 8.295 10.83 2.518 0 4.449-.869 6.334-2.881l-.324 2.428h6.5l5.232-32.095h-6.775zm-8.592 26.067c-2.338 0-3.521-1.734-3.521-5.146 0-5.131 2.213-8.768 5.328-8.768 2.361 0 3.64 1.796 3.64 5.112 0 5.175-2.25 8.802-5.447 8.802z" fill="#006"/><path fill="#FFF" d="M33.817 80.654h-6.869l3.936-24.672-8.787 24.672h-4.682l-.579-24.529L12.7 80.654H6.27l5.371-32.094h9.879l.275 19.868 6.666-19.868H39.13l-5.313 32.094M50.734 69.027c-.72-.084-1.038-.107-1.533-.107-3.894 0-5.865 1.334-5.865 3.971 0 1.623.962 2.662 2.463 2.662 2.799 0 4.816-2.664 4.935-6.526zm4.996 11.627h-5.691l.13-2.703c-1.736 2.135-4.053 3.156-7.2 3.156-3.723 0-6.275-2.91-6.275-7.132 0-6.358 4.439-10.06 12.06-10.06.78 0 1.778.071 2.8.203.213-.864.269-1.231.269-1.699 0-1.726-1.197-2.369-4.405-2.369-3.363-.04-6.133.797-7.273 1.17.072-.432.953-5.869.953-5.869 3.423-1.004 5.681-1.383 8.222-1.383 5.899 0 9.023 2.651 9.017 7.655.012 1.341-.21 3-.555 5.172-.597 3.777-1.877 11.889-2.052 13.859zM147.871 49.424l-1.125 6.965c-2.453-1.233-4.23-1.732-6.137-1.732-5.129 0-8.726 4.957-8.726 12.027 0 4.871 2.418 7.814 6.412 7.814 1.691 0 3.56-.523 5.834-1.646l-1.207 7.314c-2.529.69-4.166.941-6.07.941-7.397 0-12.004-5.318-12.004-13.857 0-11.474 6.369-19.493 15.472-19.493 3 0 6.543 1.271 7.551 1.667M158.953 69.027c-.717-.084-1.035-.107-1.529-.107-3.893 0-5.864 1.334-5.864 3.971 0 1.623.962 2.662 2.462 2.662 2.796 0 4.816-2.664 4.931-6.526zm5 11.627h-5.691l.129-2.703c-1.737 2.135-4.053 3.156-7.198 3.156-3.726 0-6.275-2.91-6.275-7.132 0-6.358 4.436-10.06 12.059-10.06.779 0 1.775.071 2.796.203.213-.864.27-1.231.27-1.699 0-1.726-1.193-2.369-4.404-2.369-3.36-.04-6.129.797-7.272 1.17.073-.432.953-5.869.953-5.869 3.424-1.004 5.68-1.383 8.221-1.383 5.899 0 9.025 2.651 9.018 7.655.013 1.341-.209 3-.555 5.172-.596 3.777-1.875 11.889-2.051 13.859zM86.26 80.258c-1.879.592-3.345.849-4.934.849-3.512 0-5.43-2.019-5.43-5.732-.048-1.158.507-4.187.943-6.959.396-2.441 2.979-17.813 2.979-17.813h6.828l-.798 3.95h3.505l-.933 6.272h-3.517c-.793 4.968-1.925 11.148-1.938 11.968 0 1.35.72 1.934 2.354 1.934.782 0 1.388-.077 1.852-.246l-.911 5.777M107.199 80.051a23.411 23.411 0 0 1-7.008 1.056c-7.646-.005-11.629-4-11.629-11.644 0-8.925 5.068-15.495 11.947-15.495 5.635 0 9.229 3.678 9.229 9.451 0 1.913-.25 3.78-.84 6.417H95.299c-.462 3.787 1.963 5.367 5.934 5.367 2.443 0 4.649-.506 7.103-1.646l-1.137 6.494zm-3.838-15.479c.037-.546.723-4.659-3.179-4.659-2.174 0-3.729 1.661-4.363 4.659h7.542zM59.85 62.804c0 3.305 1.602 5.577 5.233 7.29 2.781 1.308 3.211 1.695 3.211 2.881 0 1.627-1.226 2.361-3.945 2.361-2.05 0-3.956-.318-6.156-1.027l-.943 6.023c1.561.342 2.954.654 7.148.775 7.25 0 10.598-2.759 10.598-8.724 0-3.588-1.402-5.692-4.843-7.272-2.88-1.325-3.211-1.618-3.211-2.838 0-1.411 1.141-2.137 3.362-2.137 1.347 0 3.19.15 4.936.396l.978-6.053c-1.779-.281-4.475-.511-6.047-.511-7.685 0-10.344 4.014-10.321 8.836M200.312 80.654h-6.497l.322-2.429c-1.885 2.013-3.817 2.882-6.334 2.882-4.993 0-8.295-4.302-8.295-10.832 0-8.682 5.121-16 11.177-16 2.665 0 4.682 1.088 6.561 3.56l1.524-9.275h6.775l-5.233 32.094zm-10.134-6.031c3.201 0 5.447-3.625 5.447-8.795 0-3.317-1.279-5.118-3.641-5.118-3.115 0-5.328 3.637-5.328 8.77 0 3.417 1.186 5.143 3.522 5.143zM170.141 54.553c-.86 8.079-2.387 16.262-3.582 24.345l-.313 1.756h6.871c2.457-15.962 3.049-19.077 6.905-18.688.613-3.267 1.755-6.128 2.607-7.57-2.877-.6-4.484 1.026-6.59 4.116.168-1.337.471-2.634.414-3.959h-6.312M113.592 54.553c-.864 8.079-2.393 16.262-3.586 24.345l-.313 1.756h6.873c2.459-15.962 3.049-19.077 6.899-18.688.617-3.267 1.762-6.128 2.611-7.57-2.875-.6-4.484 1.026-6.586 4.116.166-1.337.471-2.634.41-3.959h-6.308M203.33 78.611c0-1.133.918-2.045 2.041-2.045a2.04 2.04 0 0 1 2.043 2.045 2.043 2.043 0 0 1-2.043 2.043 2.047 2.047 0 0 1-2.041-2.043zm2.041 1.553c.861 0 1.557-.697 1.557-1.553a1.553 1.553 0 1 0-1.557 1.553zm-.275-.66h-.418v-1.793h.759c.159 0 .319.006.458.092a.53.53 0 0 1 .228.447.491.491 0 0 1-.308.465l.33.789h-.465l-.276-.709h-.308v.709zm0-1.016h.232c.084 0 .182.008.256-.035a.247.247 0 0 0 .103-.207.242.242 0 0 0-.099-.186c-.072-.04-.19-.029-.268-.029h-.224v.457z"/></g></svg><svg width="118" height="38" viewBox="-5 -5 118 38" id="paypal-logo" x="222" y="138"><title>paypal-logo</title><defs><path id="ba" d="M10.46.042H0v24.21h20.918V.042H10.46z"/><path id="bc" d="M53.68.042H0v27.23h107.36V.042H53.68z"/></defs><g fill="none" fill-rule="evenodd"><mask id="bb" fill="#fff"><use xlink:href="#ba"/></mask><path d="M19.648 2.095C18.388.658 16.108.042 13.192.042H4.73c-.597 0-1.104.434-1.197 1.022L.009 23.412c-.07.44.271.84.718.84h5.224l1.313-8.323-.041.261a1.208 1.208 0 0 1 1.192-1.023h2.483c4.877 0 8.696-1.98 9.812-7.711.033-.17.061-.335.086-.496-.14-.074-.14-.074 0 0 .333-2.118-.002-3.56-1.148-4.865" fill="#27346A" mask="url(#bb)"/><path d="M83.608 12.73c-.32 2.097-1.921 2.097-3.47 2.097h-.882l.619-3.916a.486.486 0 0 1 .48-.41h.405c1.054 0 2.05 0 2.564.6.307.359.4.893.284 1.629m-.674-5.472h-5.842c-.4 0-.74.291-.803.685l-2.362 14.981a.488.488 0 0 0 .481.563h2.998a.57.57 0 0 0 .561-.48l.67-4.247a.812.812 0 0 1 .802-.685h1.848c3.848 0 6.07-1.863 6.65-5.554.261-1.613.01-2.882-.745-3.77-.831-.976-2.304-1.493-4.258-1.493" fill="#2790C3"/><path d="M41.939 12.73c-.32 2.097-1.921 2.097-3.47 2.097h-.882l.619-3.916a.486.486 0 0 1 .48-.41h.405c1.054 0 2.05 0 2.564.6.307.359.4.893.284 1.629m-.674-5.472h-5.842c-.4 0-.74.291-.803.685l-2.362 14.981a.488.488 0 0 0 .481.563h2.79a.811.811 0 0 0 .801-.685l.638-4.042a.81.81 0 0 1 .802-.685h1.848c3.848 0 6.07-1.863 6.65-5.554.261-1.613.01-2.882-.745-3.77-.831-.976-2.304-1.493-4.258-1.493M54.828 18.108c-.271 1.598-1.539 2.671-3.158 2.671-.811 0-1.461-.261-1.878-.755-.414-.49-.57-1.188-.439-1.965.252-1.584 1.541-2.692 3.135-2.692.795 0 1.44.264 1.865.762.429.503.598 1.205.475 1.979m3.899-5.446h-2.798a.486.486 0 0 0-.481.412l-.123.781-.195-.283c-.607-.879-1.957-1.173-3.305-1.173-3.091 0-5.731 2.342-6.245 5.627-.267 1.639.113 3.205 1.042 4.298.853 1.004 2.071 1.422 3.523 1.422 2.492 0 3.873-1.6 3.873-1.6l-.125.778a.486.486 0 0 0 .481.562h2.519c.4 0 .74-.29.802-.684l1.513-9.577a.487.487 0 0 0-.481-.563" fill="#27346A"/><path d="M96.497 18.108c-.27 1.598-1.539 2.671-3.158 2.671-.811 0-1.461-.261-1.878-.755-.414-.49-.57-1.188-.439-1.965.252-1.584 1.542-2.692 3.135-2.692.795 0 1.44.264 1.865.762.429.503.598 1.205.475 1.979m3.899-5.446h-2.798a.488.488 0 0 0-.481.412l-.123.781-.196-.283c-.605-.879-1.956-1.173-3.304-1.173-3.091 0-5.731 2.342-6.245 5.627-.267 1.639.113 3.205 1.042 4.298.854 1.004 2.072 1.422 3.523 1.422 2.492 0 3.873-1.6 3.873-1.6l-.125.778a.486.486 0 0 0 .481.562h2.519c.4 0 .74-.29.803-.684l1.512-9.577a.487.487 0 0 0-.481-.563" fill="#2790C3"/><mask id="bd" fill="#fff"><use xlink:href="#bc"/></mask><path d="M73.626 12.662h-2.812a.81.81 0 0 0-.671.357l-3.879 5.712-1.644-5.489a.812.812 0 0 0-.778-.58h-2.763a.487.487 0 0 0-.461.645l3.096 9.088-2.912 4.109a.486.486 0 0 0 .397.768h2.809c.266 0 .515-.13.667-.348l9.351-13.497a.487.487 0 0 0-.4-.765" fill="#27346A" mask="url(#bd)"/><path d="M103.693 7.67l-2.398 15.254a.487.487 0 0 0 .481.563h2.412a.811.811 0 0 0 .801-.685l2.365-14.981a.488.488 0 0 0-.482-.563h-2.698a.486.486 0 0 0-.481.412" fill="#2790C3" mask="url(#bd)"/><path d="M19.648 2.095C18.388.658 16.108.042 13.192.042H4.73c-.597 0-1.104.434-1.197 1.022L.009 23.412c-.07.44.271.84.718.84h5.224l1.313-8.323-.041.261a1.208 1.208 0 0 1 1.192-1.023h2.483c4.877 0 8.696-1.98 9.812-7.711.033-.17.061-.335.086-.496-.14-.074-.14-.074 0 0 .333-2.118-.002-3.56-1.148-4.865" fill="#27346A" mask="url(#bd)"/><path d="M8.674 6.988a1.06 1.06 0 0 1 1.046-.894h6.635c.785 0 1.518.051 2.188.159a9.083 9.083 0 0 1 1.336.32c.329.109.636.238.917.387.333-2.118-.002-3.559-1.147-4.865C18.387.658 16.108.042 13.193.042H4.729c-.596 0-1.103.434-1.196 1.022L.009 23.411c-.07.442.271.84.717.84h5.226L8.674 6.988" fill="#27346A" mask="url(#bd)"/><path d="M20.796 6.96c-.025.162-.053.326-.086.496-1.116 5.73-4.935 7.711-9.812 7.711H8.415c-.596 0-1.099.434-1.192 1.023L5.591 26.538a.636.636 0 0 0 .627.735h4.404c.522 0 .965-.38 1.047-.894l.043-.225.83-5.26.053-.291a1.06 1.06 0 0 1 1.046-.894h.66c4.266 0 7.607-1.733 8.583-6.746.407-2.095.196-3.844-.882-5.073a4.199 4.199 0 0 0-1.206-.93" fill="#2790C3"/><path d="M19.629 6.495a9.233 9.233 0 0 0-1.086-.241 13.7 13.7 0 0 0-2.189-.16H9.72a1.06 1.06 0 0 0-1.046.895l-1.41 8.94-.041.261a1.207 1.207 0 0 1 1.192-1.023h2.483c4.878 0 8.696-1.981 9.812-7.711.033-.17.061-.334.087-.496a6.053 6.053 0 0 0-1.168-.465" fill="#20264F"/></g></svg><svg width="226" height="148" viewBox="-5 -5 226 148" id="visa-logo" x="340" y="176"><title>visa-logo</title><g fill="none" fill-rule="evenodd"><path fill="#FFF" d="M0 137.94h216V.79H0z"/><path fill="#F1AD2B" d="M3.597 134.425h208.802v-18.72H3.597z"/><path fill="#172E66" d="M3.597 23.109h208.802V4.389H3.597zM106.197 43.733L95.191 95.188H81.879l11.007-51.455h13.311zm56.004 33.226l7.008-19.324 4.031 19.324h-11.039zm14.86 18.229h12.308l-10.754-51.455h-11.354c-2.56 0-4.716 1.484-5.671 3.772l-19.975 47.683h13.981l2.775-7.684h17.076l1.614 7.684zM142.309 78.39c.058-13.579-18.772-14.332-18.647-20.4.041-1.844 1.799-3.807 5.645-4.309 1.906-.246 7.166-.445 13.129 2.302l2.332-10.916c-3.204-1.158-7.325-2.274-12.452-2.274-13.16 0-22.418 6.99-22.492 17.008-.084 7.408 6.614 11.539 11.649 14.006 5.191 2.521 6.931 4.139 6.906 6.392-.036 3.452-4.141 4.981-7.961 5.038-6.697.105-10.578-1.809-13.672-3.252l-2.416 11.281c3.115 1.425 8.856 2.667 14.799 2.73 13.99 0 23.139-6.908 23.18-17.606zM87.176 43.733L65.607 95.188h-14.07L40.922 54.123c-.643-2.524-1.204-3.453-3.161-4.519-3.201-1.74-8.486-3.366-13.132-4.377l.314-1.494h22.652c2.886 0 5.481 1.92 6.141 5.244l5.607 29.777 13.848-35.021h13.985z"/></g></svg></svg>