<?xml version="1.0" encoding="UTF-8" standalone="no"?>
<svg width="54px" height="32px" viewBox="0 0 54 32" version="1.1" xmlns="http://www.w3.org/2000/svg" xmlns:xlink="http://www.w3.org/1999/xlink">
    <!-- Generator: Sketch 3.8.3 (29802) - http://www.bohemiancoding.com/sketch -->
    <title>mastercard-logo</title>
    <desc>Created with Sketch.</desc>
    <defs></defs>
    <g id="Page-1" stroke="none" stroke-width="1" fill="none" fill-rule="evenodd">
        <g id="Large" transform="translate(-16.000000, -16.000000)">
            <g id="Top-Bar">
                <g id="mastercard-logo" transform="translate(16.000000, 16.000000)">
                    <g id="Page-1">
                        <g>
                            <g>
                                <g id="mastercard-logo">
                                    <path d="M31.8202689,16.059437 C31.8202689,24.8291443 24.7117097,31.9374527 15.9425042,31.9374527 C7.17254606,31.9374527 0.0634849621,24.8291443 0.0634849621,16.059437 C0.0634849621,7.2899807 7.17254606,0.180919595 15.9425042,0.180919595 C24.7117097,0.180919595 31.8202689,7.2899807 31.8202689,16.059437" id="Fill-2" fill="#CC0000"></path>
                                    <path d="M37.2599013,0.180919595 C33.1564642,0.180919595 29.4183794,1.73743034 26.5999481,4.29088083 C26.026827,4.81130697 25.491345,5.37338726 24.9977683,5.97185222 L28.2053899,5.97185222 C28.6435115,6.50532663 29.0475067,7.06615229 29.4158701,7.65357639 L23.7865355,7.65357639 C23.4500401,8.19332403 23.1436561,8.75414967 22.8719005,9.33530055 L30.3305051,9.33530055 C30.5854487,9.87956492 30.8097789,10.4401396 31.0029941,11.0162719 L22.1994115,11.0162719 C22.0159825,11.5640493 21.8616615,12.124875 21.7379537,12.6969924 L31.4636991,12.6969924 C31.69631,13.7810044 31.8202689,14.9056668 31.8202689,16.059437 C31.8202689,17.8222112 31.5332064,19.5189911 31.0029941,21.1036058 L22.1994115,21.1036058 C22.3923757,21.6794872 22.6169569,22.2405637 22.8713984,22.7855809 L30.3305051,22.7855809 C30.0579967,23.3652262 29.7531181,23.9265538 29.4146155,24.4670541 L23.7865355,24.4670541 C24.1538951,25.0527217 24.5586431,25.6143003 24.9977683,26.1470219 L28.2043863,26.1470219 C27.7115624,26.7459886 27.1758296,27.308069 26.6007009,27.8284952 C29.4188812,30.3819456 33.1564642,31.9374527 37.2599013,31.9374527 C46.0291067,31.9374527 53.1381679,24.8291443 53.1381679,16.059437 C53.1381679,7.29073349 46.0291067,0.180919595 37.2599013,0.180919595" id="Fill-3" fill="#FF9900"></path>
                                    <path d="M51.0218352,24.9104451 C51.0218352,24.6273976 51.2516858,24.3977978 51.5349843,24.3977978 C51.8187846,24.3977978 52.0476316,24.6273976 52.0476316,24.9104451 C52.0476316,25.1937438 51.8187846,25.4235944 51.5349843,25.4235944 C51.2516858,25.4235944 51.0218352,25.1937438 51.0218352,24.9104451 L51.0218352,24.9104451 L51.0218352,24.9104451 Z M51.5349843,25.3006394 C51.7495283,25.3006394 51.9246766,25.1257419 51.9246766,24.9104451 C51.9246766,24.6943956 51.7495283,24.5210038 51.5349843,24.5210038 C51.3194367,24.5210038 51.1447902,24.6943956 51.1447902,24.9104451 C51.1447902,25.1257419 51.3194367,25.3006394 51.5349843,25.3006394 L51.5349843,25.3006394 L51.5349843,25.3006394 Z M51.4654772,25.1355283 L51.3600871,25.1355283 L51.3600871,24.6856131 L51.5510437,24.6856131 C51.5904397,24.6856131 51.6310901,24.6856131 51.6662201,24.7071929 C51.7021029,24.7327877 51.7231809,24.7756964 51.7231809,24.8203618 C51.7231809,24.8713004 51.6938221,24.9189768 51.644891,24.9370435 L51.7281995,25.1355283 L51.6115175,25.1355283 L51.5422612,24.9576197 L51.4654772,24.9576197 L51.4654772,25.1355283 L51.4654772,25.1355283 L51.4654772,25.1355283 Z M51.4654772,24.8800829 L51.5236925,24.8800829 C51.5452725,24.8800829 51.5683578,24.8815884 51.5879304,24.8713004 C51.6049935,24.8600085 51.6142778,24.8399341 51.6142778,24.8193581 C51.6142778,24.8022949 51.6027352,24.7822207 51.5884322,24.7734381 C51.5698635,24.7626481 51.5407557,24.7649066 51.5211832,24.7649066 L51.4654772,24.7649066 L51.4654772,24.8800829 L51.4654772,24.8800829 L51.4654772,24.8800829 Z" id="Fill-4" fill="#FF9900"></path>
                                    <path d="M12.2342799,17.7978711 C12.0536112,17.7772949 11.9735649,17.7707708 11.8493552,17.7707708 C10.8724898,17.7707708 10.3784112,18.1060115 10.3784112,18.7682124 C10.3784112,19.1759715 10.6195537,19.4351809 10.9959467,19.4351809 C11.6982962,19.4351809 12.2044193,18.7667068 12.2342799,17.7978711 L12.2342799,17.7978711 L12.2342799,17.7978711 Z M13.4881706,20.7164228 L12.0596335,20.7164228 L12.0925051,20.0374098 C11.6568929,20.5736444 11.0754911,20.8295917 10.2858185,20.8295917 C9.35186186,20.8295917 8.71098994,20.1001419 8.71098994,19.040721 C8.71098994,17.4453163 9.82511339,16.5151236 11.737441,16.5151236 C11.9334164,16.5151236 12.1835923,16.5334414 12.4402923,16.5658112 C12.4934892,16.3495106 12.5075412,16.2576707 12.5075412,16.1409889 C12.5075412,15.7073841 12.2074305,15.5447823 11.4022003,15.5447823 C10.5588289,15.5362507 9.86325455,15.746278 9.57719582,15.8401253 C9.59551362,15.7312223 9.81658182,14.3669229 9.81658182,14.3669229 C10.6750089,14.1144886 11.2416059,14.0201394 11.8792158,14.0201394 C13.359946,14.0201394 14.1440982,14.6845986 14.1423417,15.9407477 C14.1453529,16.277745 14.0893958,16.6922792 14.0025744,17.238551 C13.8530209,18.1868106 13.5318322,20.2213405 13.4881706,20.7164228 L13.4881706,20.7164228 L13.4881706,20.7164228 Z" id="Fill-5" fill="#000066"></path>
                                    <polyline id="Fill-6" fill="#000066" points="7.98956991 20.7164228 6.26568972 20.7164228 7.25384696 14.5255099 5.04843458 20.7164228 3.87383732 20.7164228 3.72854961 14.560138 2.69070849 20.7164228 1.07698599 20.7164228 2.42497498 12.6623642 4.90389966 12.6623642 5.05370408 17.1705493 6.56605139 12.6623642 9.32300505 12.6623642 7.98956991 20.7164228"></polyline>
                                    <path d="M39.3900351,17.7978711 C39.2091154,17.7772949 39.1300729,17.7707708 39.0061141,17.7707708 C38.028496,17.7707708 37.5349193,18.1060115 37.5349193,18.7682124 C37.5349193,19.1759715 37.7750579,19.4351809 38.1524546,19.4351809 C38.8543023,19.4351809 39.3604256,18.7667068 39.3900351,17.7978711 L39.3900351,17.7978711 L39.3900351,17.7978711 Z M40.6446786,20.7164228 L39.2163925,20.7164228 L39.2487622,20.0374098 C38.8131499,20.5736444 38.2317482,20.8295917 37.4428283,20.8295917 C36.507617,20.8295917 35.8677488,20.1001419 35.8677488,19.040721 C35.8677488,17.4453163 36.9821232,16.5151236 38.8939491,16.5151236 C39.0894225,16.5151236 39.3393475,16.5334414 39.5962984,16.5658112 C39.6497463,16.3495106 39.6632964,16.2576707 39.6632964,16.1409889 C39.6632964,15.7073841 39.3634367,15.5447823 38.5582063,15.5447823 C37.7148351,15.5362507 37.0192607,15.746278 36.7327001,15.8401253 C36.7517708,15.7312223 36.9733407,14.3669229 36.9733407,14.3669229 C37.8315169,14.1144886 38.3983649,14.0201394 39.034971,14.0201394 C40.516705,14.0201394 41.2998535,14.6845986 41.2983478,15.9407477 C41.301359,16.277745 41.2459038,16.6922792 41.1585806,17.238551 C41.0097799,18.1868106 40.6875873,20.2213405 40.6446786,20.7164228 L40.6446786,20.7164228 L40.6446786,20.7164228 Z" id="Fill-7" fill="#000066"></path>
                                    <path d="M21.1492748,20.6168041 C20.677278,20.7653539 20.3094165,20.8295917 19.9106908,20.8295917 C19.0294292,20.8295917 18.5483988,20.3232176 18.5483988,19.3905156 C18.5363543,19.1009438 18.6751178,18.3393752 18.7847737,17.6448046 C18.8843924,17.0327895 19.5322903,13.1750116 19.5322903,13.1750116 L21.2456314,13.1750116 L21.0458922,14.1664309 L22.0807223,14.1664309 L21.8471075,15.7407576 L20.8082626,15.7407576 C20.6092763,16.9861167 20.3254759,18.5378598 20.3224648,18.7436214 C20.3224648,19.0813714 20.5026316,19.2289175 20.9126491,19.2289175 C21.1093772,19.2289175 21.261189,19.2088432 21.3773689,19.167189 L21.1492748,20.6168041" id="Fill-8" fill="#000066"></path>
                                    <path d="M26.4027181,20.5638582 C25.8140395,20.7437741 25.2466897,20.8315992 24.6447117,20.8295917 C22.7263618,20.8270824 21.7266618,19.8258769 21.7266618,17.9075269 C21.7266618,15.668741 22.9981176,14.0201394 24.7255106,14.0201394 C26.1379884,14.0201394 27.0405789,14.9430552 27.0405789,16.3896592 C27.0405789,16.8709404 26.9788505,17.3396753 26.829046,18.0011233 L23.4166666,18.0011233 C23.3014903,18.9513903 23.9092397,19.3471049 24.9066814,19.3471049 C25.5194491,19.3471049 26.0729978,19.2206368 26.6877731,18.9353309 L26.4027181,20.5638582 L26.4027181,20.5638582 L26.4027181,20.5638582 Z M25.4394028,16.6809874 C25.44944,16.5442313 25.6210753,15.5116597 24.6419514,15.5116597 C24.0964324,15.5116597 23.7059873,15.9276994 23.5476513,16.6809874 L25.4394028,16.6809874 L25.4394028,16.6809874 L25.4394028,16.6809874 Z" id="Fill-9" fill="#000066"></path>
                                    <path d="M14.5222478,16.2375964 C14.5222478,17.0651593 14.9237337,17.6365239 15.8346049,18.0658629 C16.5324376,18.3943286 16.6410898,18.4911871 16.6410898,18.7887885 C16.6410898,19.1965477 16.3326984,19.3817331 15.651176,19.3817331 C15.1365212,19.3817331 14.6580002,19.300934 14.106208,19.1225237 C14.106208,19.1225237 13.8803722,20.5668693 13.8695822,20.6358747 C14.261031,20.7206886 14.6105747,20.7997311 15.6632206,20.8295917 C17.4819519,20.8295917 18.3223121,20.1370285 18.3223121,18.6402387 C18.3223121,17.7404084 17.9710119,17.2122035 17.1070644,16.8147324 C16.3846406,16.4835065 16.3010814,16.4089807 16.3010814,16.1033495 C16.3010814,15.7492891 16.5881438,15.5683696 17.1449546,15.5683696 C17.4832065,15.5683696 17.9454172,15.6045033 18.3837896,15.6664827 L18.628947,14.1473603 C18.1825448,14.0763475 17.5057901,14.0201394 17.111832,14.0201394 C15.1834449,14.0201394 14.5159746,15.0271163 14.5222478,16.2375964" id="Fill-10" fill="#000066"></path>
                                    <path d="M34.786497,14.1930293 C35.265269,14.1930293 35.7121731,14.31749 36.3269484,14.6276378 L36.6092432,12.8799194 C36.3558053,12.7805516 35.4672667,12.1981461 34.7144806,12.1981461 C33.5612123,12.1981461 32.5848486,12.7712673 31.8998132,13.7150101 C30.8991096,13.3837842 30.4873357,14.053262 29.9834708,14.7207324 L29.535563,14.8251187 C29.5694383,14.6055561 29.6003028,14.3872481 29.5905164,14.1664309 L28.0064035,14.1664309 C27.7908557,16.1941857 27.4076877,18.2472844 27.1075769,20.275792 L27.0292871,20.7164228 L28.7539202,20.7164228 C29.0414845,18.8460003 29.1988168,17.6488194 29.2949224,16.8378179 L29.9443258,16.4779861 C30.0419372,16.1163978 30.3448081,15.9949483 30.9538122,16.0097531 C30.8745186,16.4368338 30.831359,16.886749 30.831359,17.3522217 C30.831359,19.4954038 31.9888929,20.8295917 33.8440089,20.8295917 C34.321777,20.8295917 34.7325473,20.7668595 35.3681498,20.5937187 L35.670017,18.7584262 C35.0986525,19.0392154 34.6306703,19.1714548 34.2060989,19.1714548 C33.2038897,19.1714548 32.5976459,18.4314661 32.5976459,17.2091924 C32.5976459,15.4353773 33.4989818,14.1930293 34.786497,14.1930293" id="Fill-11" fill="#000066"></path>
                                    <path d="M49.3810124,12.6623642 L48.9978442,14.9892261 C48.5273529,14.3691813 48.0209787,13.9200189 47.3525047,13.9200189 C46.4825349,13.9200189 45.6911059,14.5794595 45.1726872,15.5505536 C44.4505143,15.4007492 43.7047541,15.1460565 43.7047541,15.1460565 L43.7042523,15.1523298 C43.7614641,14.609571 43.7860551,14.2793488 43.7802836,14.1664309 L42.1966726,14.1664309 C41.9816268,16.1941857 41.5977058,18.2472844 41.2983478,20.275792 L41.2190543,20.7164228 L42.9441893,20.7164228 C43.1768002,19.2048283 43.3547086,17.9481774 43.4861953,16.9529941 C44.0756268,16.4202725 44.370719,15.9565563 44.965169,15.9866677 C44.7016939,16.6245285 44.5476237,17.3587458 44.5476237,18.1120338 C44.5476237,19.7488417 45.3754375,20.8295917 46.6290772,20.8295917 C47.2609157,20.8295917 47.7454591,20.6115346 48.2184596,20.1066661 L48.1371589,20.715921 L49.7681953,20.715921 L51.0810543,12.6623642 L49.3810124,12.6623642 L49.3810124,12.6623642 L49.3810124,12.6623642 Z M47.2250329,19.2033227 C46.6383616,19.2033227 46.3415129,18.7682124 46.3415129,17.9120436 C46.3415129,16.6245285 46.8968183,15.7119008 47.6784611,15.7119008 C48.2709037,15.7119008 48.5918417,16.1625687 48.5918417,16.9946483 C48.5918417,18.2932043 48.0272519,19.2033227 47.2250329,19.2033227 L47.2250329,19.2033227 L47.2250329,19.2033227 Z" id="Fill-12" fill="#000066"></path>
                                    <polyline id="Fill-13" fill="#FFFFFF" points="8.48565596 20.2384037 6.7620267 20.2384037 7.74968208 14.0474907 5.54477155 20.2384037 4.36992337 20.2384037 4.22463566 14.0833735 3.18679454 20.2384037 1.57332297 20.2384037 2.92106103 12.1850978 5.3999857 12.1850978 5.46899109 17.1705493 7.14168183 12.1850978 9.81884017 12.1850978 8.48565596 20.2384037"></polyline>
                                    <path d="M12.7306169,17.3208556 C12.5499482,17.2997776 12.4701529,17.2940063 12.3459431,17.2940063 C11.3688268,17.2940063 10.8742463,17.6287451 10.8742463,18.2904441 C10.8742463,18.6977014 11.1156397,18.9584163 11.4922837,18.9584163 C12.1946331,18.9584163 12.7007563,18.2899423 12.7306169,17.3208556 L12.7306169,17.3208556 L12.7306169,17.3208556 Z M13.9842566,20.2384037 L12.5562214,20.2384037 L12.5888421,19.5601434 C12.1532299,20.0958762 11.5718281,20.3520743 10.7821555,20.3520743 C9.84794791,20.3520743 9.20757785,19.6218718 9.20757785,18.5624508 C9.20757785,16.9670462 10.3214504,16.0381081 12.233778,16.0381081 C12.4295024,16.0381081 12.6799292,16.055924 12.9363784,16.0890466 C12.9898262,15.8722442 13.0038782,15.7801534 13.0038782,15.6627188 C13.0038782,15.2296158 12.7035166,15.0682687 11.8985373,15.0682687 C11.054664,15.0582315 10.3595915,15.2682588 10.0735328,15.3618552 C10.0915997,15.253454 10.3126679,13.8891547 10.3126679,13.8891547 C11.1715968,13.6372223 11.7381938,13.5421203 12.3758037,13.5421203 C13.8560321,13.5421203 14.6399333,14.2073323 14.6384278,15.4629795 C14.6414389,15.7994749 14.5857328,16.2157656 14.4991623,16.7607828 C14.3493579,17.7085405 14.0281692,19.7440741 13.9842566,20.2384037 L13.9842566,20.2384037 L13.9842566,20.2384037 Z" id="Fill-14" fill="#FFFFFF"></path>
                                    <path d="M37.1050782,12.4019002 L36.8227836,14.1496187 C36.2072555,13.8402236 35.761355,13.7150101 35.2828341,13.7150101 C33.9958207,13.7150101 33.0932301,14.9588637 33.0932301,16.7329297 C33.0932301,17.9552034 33.6999759,18.6936865 34.7021851,18.6936865 C35.1265056,18.6936865 35.5954913,18.5624508 36.1661031,18.2806579 L35.8632322,20.1159504 C35.2286336,20.2890912 34.8178633,20.3520743 34.340095,20.3520743 C32.4839753,20.3520743 31.3279468,19.0176355 31.3279468,16.8749553 C31.3279468,13.9957994 32.9261118,11.9836021 35.2103156,11.9836021 C35.9631017,11.9836021 36.8521421,12.3025325 37.1050782,12.4019002" id="Fill-15" fill="#FFFFFF"></path>
                                    <path d="M39.8858701,17.3208556 C39.7059543,17.2997776 39.626159,17.2940063 39.5022003,17.2940063 C38.5253349,17.2940063 38.0307543,17.6287451 38.0307543,18.2904441 C38.0307543,18.6977014 38.2721477,18.9584163 38.6485407,18.9584163 C39.3501374,18.9584163 39.8570134,18.2899423 39.8858701,17.3208556 L39.8858701,17.3208556 L39.8858701,17.3208556 Z M41.1405137,20.2384037 L39.7124785,20.2384037 L39.7448482,19.5601434 C39.3089851,20.0958762 38.7278342,20.3520743 37.9386635,20.3520743 C37.0037031,20.3520743 36.3640858,19.6218718 36.3640858,18.5624508 C36.3640858,16.9670462 37.4772056,16.0381081 39.3900351,16.0381081 C39.5855086,16.0381081 39.8354336,16.055924 40.0916318,16.0890466 C40.1450795,15.8722442 40.1593824,15.7801534 40.1593824,15.6627188 C40.1593824,15.2296158 39.8600245,15.0682687 39.0542926,15.0682687 C38.2111719,15.0582315 37.5163505,15.2682588 37.2295389,15.3618552 C37.2478568,15.253454 37.4686741,13.8891547 37.4686741,13.8891547 C38.3278539,13.6372223 38.8939491,13.5421203 39.5315589,13.5421203 C41.0117872,13.5421203 41.7961903,14.2073323 41.7944339,15.4629795 C41.797696,15.7994749 41.7419898,16.2157656 41.6551684,16.7607828 C41.505615,17.7085405 41.1846772,19.7440741 41.1405137,20.2384037 L41.1405137,20.2384037 L41.1405137,20.2384037 Z" id="Fill-16" fill="#FFFFFF"></path>
                                    <path d="M21.64511,20.1390359 C21.173615,20.2875857 20.8057534,20.3520743 20.4070277,20.3520743 C19.5257661,20.3520743 19.0444849,19.8454493 19.0444849,18.913751 C19.0324403,18.6231756 19.1717057,17.8631125 19.2811106,17.1675382 C19.3804784,16.5550212 20.0286273,12.6977452 20.0286273,12.6977452 L21.7419684,12.6977452 L21.5417274,13.6889136 L22.4212324,13.6889136 L22.1871161,15.2627384 L21.3045997,15.2627384 C21.1056133,16.5093522 20.821562,18.0600916 20.8182998,18.2658531 C20.8182998,18.6046069 20.9989685,18.7511492 21.408986,18.7511492 C21.6052123,18.7511492 21.757275,18.7318277 21.873706,18.6894208 L21.64511,20.1390359" id="Fill-17" fill="#FFFFFF"></path>
                                    <path d="M26.8993062,20.0870937 C26.3106273,20.2672604 25.7417721,20.3525762 25.1407977,20.3520743 C23.2221968,20.3508197 22.2227478,19.3483595 22.2227478,17.4302605 C22.2227478,15.1907218 23.4944544,13.5421203 25.220593,13.5421203 C26.6345762,13.5421203 27.5364141,14.4650361 27.5364141,15.9136474 C27.5364141,16.3936741 27.4736819,16.8621579 27.3256339,17.5238569 L23.9132544,17.5238569 C23.7973255,18.4741239 24.4058275,18.8705913 25.4022654,18.8705913 C26.0152844,18.8705913 26.568833,18.7436214 27.1846119,18.4575626 L26.8993062,20.0870937 L26.8993062,20.0870937 L26.8993062,20.0870937 Z M25.9362417,16.2029682 C25.945526,16.0659612 26.1176632,15.0338914 25.1385394,15.0338914 C24.5930205,15.0338914 24.2028262,15.450684 24.0437374,16.2029682 L25.9362417,16.2029682 L25.9362417,16.2029682 L25.9362417,16.2029682 Z" id="Fill-18" fill="#FFFFFF"></path>
                                    <path d="M15.0180829,15.7593263 C15.0180829,16.5886457 15.4200707,17.1587557 16.3311928,17.5885966 C17.0290255,17.9168113 17.1369249,18.0139207 17.1369249,18.3115221 C17.1369249,18.7197831 16.8292863,18.9039648 16.1470111,18.9039648 C15.6326073,18.9039648 15.1543372,18.8241695 14.602294,18.646261 C14.602294,18.646261 14.3764582,20.089352 14.3656683,20.1576046 C14.757368,20.2434222 15.1069117,20.321712 16.1593066,20.3520743 C17.9785397,20.3520743 18.818649,19.6597621 18.818649,18.1629723 C18.818649,17.2626402 18.466847,16.7346862 17.6034013,16.3382188 C16.8807267,16.0057383 16.7976693,15.9322162 16.7976693,15.6260832 C16.7976693,15.2720228 17.0839789,15.0898485 17.6412916,15.0898485 C17.9792925,15.0898485 18.4417541,15.1274878 18.8798757,15.1892163 L19.1252839,13.6703448 C18.6788818,13.5998339 18.002378,13.5421203 17.607918,13.5421203 C15.679531,13.5421203 15.0123115,14.5493481 15.0180829,15.7593263" id="Fill-19" fill="#FFFFFF"></path>
                                    <path d="M50.2640305,20.2384037 L48.6337467,20.2384037 L48.7145457,19.6288978 C48.2415451,20.1340173 47.7567508,20.3520743 47.1251632,20.3520743 C45.8722764,20.3520743 45.0437097,19.2725791 45.0437097,17.6340146 C45.0437097,15.4554516 46.3287156,13.6191554 47.8483397,13.6191554 C48.5170647,13.6191554 49.0231879,13.8921658 49.494683,14.5124616 L49.8770984,12.1850978 L51.5771404,12.1850978 L50.2640305,20.2384037 L50.2640305,20.2384037 L50.2640305,20.2384037 Z M47.721119,18.7250526 C48.5243418,18.7250526 49.0879277,17.8154361 49.0879277,16.5181347 C49.0879277,15.6858042 48.7669897,15.2338816 48.1742963,15.2338816 C47.3926533,15.2338816 46.8373482,16.1465093 46.8373482,17.4345263 C46.8373482,18.2919497 47.1349496,18.7250526 47.721119,18.7250526 L47.721119,18.7250526 L47.721119,18.7250526 Z" id="Fill-20" fill="#FFFFFF"></path>
                                    <path d="M42.6932605,13.6889136 C42.4774618,15.7161666 42.0942938,17.7695161 41.7944339,19.7977728 L41.7158932,20.2384037 L43.4400243,20.2384037 C44.0565563,16.2330797 44.2051061,15.4514368 45.1726872,15.549048 C45.3265064,14.729264 45.613067,14.0113569 45.8268582,13.6495178 C45.1049363,13.4989605 44.7016939,13.9069706 44.173238,14.6823403 C44.2153941,14.3468486 44.2914255,14.0213941 44.2771225,13.6889136 L42.6932605,13.6889136" id="Fill-21" fill="#FFFFFF"></path>
                                    <path d="M28.5034932,13.6889136 C28.2866909,15.7161666 27.9030209,17.7695161 27.603663,19.7977728 L27.5251223,20.2384037 L29.2497552,20.2384037 C29.866789,16.2330797 30.0148368,15.4514368 30.9809124,15.549048 C31.1357355,14.729264 31.4230487,14.0113569 31.6360873,13.6495178 C30.9146672,13.4989605 30.510923,13.9069706 29.9834708,14.6823403 C30.025125,14.3468486 30.1016582,14.0213941 30.0863516,13.6889136 L28.5034932,13.6889136" id="Fill-22" fill="#FFFFFF"></path>
                                    <path d="M51.0213332,19.7257563 C51.0213332,19.4414541 51.2516858,19.2126071 51.5334789,19.2126071 C51.8172792,19.2126071 52.0461261,19.4414541 52.0461261,19.7257563 C52.0461261,20.0080511 51.8172792,20.2384037 51.5334789,20.2384037 C51.2516858,20.2384037 51.0213332,20.0080511 51.0213332,19.7257563 L51.0213332,19.7257563 L51.0213332,19.7257563 Z M51.5334789,20.1154486 C51.7495283,20.1154486 51.9241748,19.9405513 51.9241748,19.7257563 C51.9241748,19.5107104 51.7495283,19.3358131 51.5334789,19.3358131 C51.3184328,19.3358131 51.1442884,19.5107104 51.1442884,19.7257563 C51.1442884,19.9405513 51.3184328,20.1154486 51.5334789,20.1154486 L51.5334789,20.1154486 L51.5334789,20.1154486 Z M51.4644734,19.9498356 L51.3595852,19.9498356 L51.3595852,19.4999205 L51.5500401,19.4999205 C51.5899377,19.4999205 51.6300862,19.5014261 51.6649654,19.5230059 C51.7021029,19.547346 51.7221772,19.5905057 51.7221772,19.6351711 C51.7221772,19.6861096 51.6928185,19.733786 51.644891,19.7518529 L51.7276977,19.9498356 L51.6110157,19.9498356 L51.5417594,19.7719272 L51.4644734,19.7719272 L51.4644734,19.9498356 L51.4644734,19.9498356 L51.4644734,19.9498356 Z M51.4644734,19.6948921 L51.5226888,19.6948921 C51.5437669,19.6948921 51.5683578,19.6968995 51.5869265,19.6861096 C51.6039898,19.6753196 51.6127722,19.6537398 51.6127722,19.6341673 C51.6127722,19.6171042 51.6027352,19.5980336 51.5879304,19.5874946 C51.5698635,19.5774575 51.5402539,19.5802177 51.5206814,19.5802177 L51.4644734,19.5802177 L51.4644734,19.6948921 L51.4644734,19.6948921 L51.4644734,19.6948921 Z" id="Fill-23" fill="#FFFFFF"></path>
                                </g>
                            </g>
                        </g>
                    </g>
                </g>
            </g>
        </g>
    </g>
</svg>