<?xml version="1.0" encoding="UTF-8" standalone="no"?>
<svg width="28px" height="32px" viewBox="0 0 28 32" version="1.1" xmlns="http://www.w3.org/2000/svg" xmlns:xlink="http://www.w3.org/1999/xlink">
    <!-- Generator: Sketch 3.8.3 (29802) - http://www.bohemiancoding.com/sketch -->
    <title>paypal-p-logo</title>
    <desc>Created with Sketch.</desc>
    <defs></defs>
    <g id="Page-1" stroke="none" stroke-width="1" fill="none" fill-rule="evenodd">
        <g id="Large" transform="translate(-151.000000, -16.000000)">
            <g id="Top-Bar">
                <g id="paypal-p-logo" transform="translate(151.000000, 16.000000)">
                    <g id="Page-1">
                        <g>
                            <g>
                                <g id="paypal-p-logo">
                                    <path d="M23.1556193,2.45766821 C21.677499,0.771907247 19.0028052,0.0492706754 15.5820126,0.0492706754 L5.65514465,0.0492706754 C4.9547972,0.0492706754 4.36002976,0.558400987 4.25093041,1.24819044 L0.116886124,27.4648821 C0.0347683319,27.9810511 0.434799292,28.4502956 0.95918005,28.4502956 L7.08751357,28.4502956 L8.62780873,18.6864902 L8.57971117,18.9926722 C8.68881052,18.3017097 9.28005863,17.7925793 9.97805986,17.7925793 L12.8908952,17.7925793 C18.6121592,17.7925793 23.0922713,15.469819 24.4014635,8.74671798 C24.4401762,8.54728906 24.4730233,8.35372569 24.5023511,8.16485477 C24.3381155,8.07804453 24.3381155,8.07804453 24.5023511,8.16485477 C24.8929972,5.680205 24.5000048,3.98857848 23.1556193,2.45766821" id="Fill-1" fill="#27346A"></path>
                                    <path d="M23.1556193,2.45766821 C21.677499,0.771907247 19.0028052,0.0492706754 15.5820126,0.0492706754 L5.65514465,0.0492706754 C4.9547972,0.0492706754 4.36002976,0.558400987 4.25093041,1.24819044 L0.116886124,27.4648821 C0.0347683319,27.9810511 0.434799292,28.4502956 0.95918005,28.4502956 L7.08751357,28.4502956 L8.62780873,18.6864902 L8.57971117,18.9926722 C8.68881052,18.3017097 9.28005863,17.7925793 9.97805986,17.7925793 L12.8908952,17.7925793 C18.6121592,17.7925793 23.0922713,15.469819 24.4014635,8.74671798 C24.4401762,8.54728906 24.4730233,8.35372569 24.5023511,8.16485477 C24.3381155,8.07804453 24.3381155,8.07804453 24.5023511,8.16485477 C24.8929972,5.680205 24.5000048,3.98857848 23.1556193,2.45766821" id="Fill-11" fill="#27346A"></path>
                                    <path d="M10.2818957,8.19770189 C10.3475899,7.78242048 10.6138862,7.44221819 10.9728583,7.26977083 C11.1359208,7.19234549 11.317753,7.14894037 11.5089701,7.14894037 L19.2925637,7.14894037 C20.2134561,7.14894037 21.0733467,7.20876905 21.8593312,7.33546507 C22.0845687,7.37183152 22.3027674,7.41289042 22.5151005,7.46098798 C22.7274337,7.50791243 22.9327281,7.56070244 23.132157,7.61935801 C23.2318715,7.64868579 23.3304129,7.67801358 23.426608,7.71086069 C23.8125616,7.83872983 24.1727068,7.99006118 24.5023511,8.16485477 C24.8929972,5.680205 24.5000048,3.98975159 23.1567924,2.45766821 C21.6763259,0.771907247 19.0028052,0.0492706754 15.5831857,0.0492706754 L5.65397155,0.0492706754 C4.9547972,0.0492706754 4.36002976,0.558400987 4.25093041,1.24819044 L0.116886124,27.463709 C0.0347683319,27.9822243 0.434799292,28.4491225 0.958006939,28.4491225 L7.08868668,28.4491225 L10.2818957,8.19770189" id="Fill-12" fill="#27346A"></path>
                                    <path d="M24.5023511,8.16485477 L24.5023511,8.16485477 C24.4730233,8.35489881 24.4401762,8.54728906 24.4014635,8.74671798 C23.0922713,15.4686459 18.6121592,17.7925793 12.8908952,17.7925793 L9.97805986,17.7925793 C9.27888551,17.7925793 8.68881052,18.3017097 8.57971117,18.9926722 L6.6651935,31.1320282 C6.59363371,31.583676 6.94322088,31.9942649 7.4007343,31.9942649 L12.5671165,31.9942649 C13.1794806,31.9942649 13.699169,31.5484827 13.7953641,30.9455034 L13.8458079,30.6815534 L14.8194902,24.5109879 L14.8816652,24.1696125 C14.9778603,23.5654602 15.4975486,23.1208509 16.1087396,23.1208509 L16.8829931,23.1208509 C21.887486,23.1208509 25.8068508,21.0878491 26.9518075,15.207042 C27.4292638,12.7493738 27.1817374,10.6976021 25.9171233,9.2558483 C25.5335159,8.81945089 25.0584059,8.45930571 24.5023511,8.16485477" id="Fill-14" fill="#2790C3"></path>
                                    <path d="M23.1333301,7.61935801 C22.9327281,7.56070244 22.7274337,7.50791243 22.5151005,7.46098798 C22.3027674,7.41406353 22.0833955,7.37183152 21.8593312,7.33663819 C21.0733467,7.20876905 20.2146292,7.14894037 19.2913907,7.14894037 L11.5089701,7.14894037 C11.317753,7.14894037 11.1359208,7.19234549 10.9728583,7.27094395 C10.6138862,7.44339131 10.3475899,7.78242048 10.2818957,8.198875 L8.62780873,18.6864902 L8.57971117,18.9926722 C8.68881052,18.3017097 9.27888551,17.7925793 9.97805986,17.7925793 L12.8908952,17.7925793 C18.6133323,17.7925793 23.0922713,15.4686459 24.4014635,8.74671798 C24.4401762,8.54728906 24.4730233,8.35489881 24.5035242,8.16485477 C24.1715337,7.99006118 23.8125616,7.83872983 23.426608,7.71086069 C23.3304129,7.67918668 23.2330447,7.64751268 23.1333301,7.61935801" id="Fill-15" fill="#20264F"></path>
                                </g>
                            </g>
                        </g>
                    </g>
                </g>
            </g>
        </g>
    </g>
</svg>