<?xml version="1.0" encoding="UTF-8" standalone="no"?>
<svg width="50px" height="32px" viewBox="0 0 50 32" version="1.1" xmlns="http://www.w3.org/2000/svg" xmlns:xlink="http://www.w3.org/1999/xlink">
    <!-- Generator: Sketch 3.8.3 (29802) - http://www.bohemiancoding.com/sketch -->
    <title>visa-logo</title>
    <desc>Created with Sketch.</desc>
    <defs></defs>
    <g id="Page-1" stroke="none" stroke-width="1" fill="none" fill-rule="evenodd">
        <g id="Large" transform="translate(-85.000000, -16.000000)">
            <g id="Top-Bar">
                <g id="visa-logo" transform="translate(85.000000, 16.000000)">
                    <g id="Page-1">
                        <g>
                            <g>
                                <g id="visa-logo">
                                    <polygon id="Fill-1" fill="#FFFFFF" points="0 31.9002702 49.9525762 31.9002702 49.9525762 0.182696922 0 0.182696922"></polygon>
                                    <polygon id="Fill-3" fill="#F1AD2B" points="0.831849149 31.0873844 49.119802 31.0873844 49.119802 26.7581612 0.831849149 26.7581612"></polygon>
                                    <polygon id="Fill-4" fill="#172E66" points="0.831849149 5.34423186 49.119802 5.34423186 49.119802 1.0150086 0.831849149 1.0150086"></polygon>
                                    <path d="M24.5593227,10.1137778 L22.014054,22.0133602 L18.9354953,22.0133602 L21.4809953,10.1137778 L24.5593227,10.1137778 L24.5593227,10.1137778 L24.5593227,10.1137778 Z M37.5109157,17.7976866 L39.1315994,13.3287811 L40.0638162,17.7976866 L37.5109157,17.7976866 L37.5109157,17.7976866 L37.5109157,17.7976866 Z M40.9474679,22.0133602 L43.7938398,22.0133602 L41.306849,10.1137778 L38.6811011,10.1137778 C38.0890706,10.1137778 37.5904699,10.4569705 37.3696146,10.9860978 L32.7501577,22.0133602 L35.9834306,22.0133602 L36.6251826,20.2363436 L40.5742113,20.2363436 L40.9474679,22.0133602 L40.9474679,22.0133602 L40.9474679,22.0133602 Z M32.9106535,18.1286224 C32.9240667,14.9883167 28.5694047,14.8141765 28.5983124,13.4108791 C28.6077941,12.9844321 29.0143526,12.530465 29.903786,12.4143715 C30.3445711,12.3574811 31.561009,12.3114599 32.9400238,12.9467364 L33.4793266,10.4222812 C32.7383633,10.1544799 31.7853329,9.89639163 30.5996531,9.89639163 C27.556246,9.89639163 25.4152232,11.5129125 25.3981099,13.8296945 C25.3786839,15.5428828 26.9276763,16.4982258 28.09208,17.068749 C29.2925606,17.6517603 29.6949565,18.0259421 29.6891748,18.5469752 C29.6808494,19.3452914 28.7315192,19.6988909 27.8480987,19.7120728 C26.2993376,19.7363553 25.40181,19.29372 24.6862857,18.9600091 L24.1275569,21.5688749 C24.8479378,21.898423 26.1756125,22.1856503 27.5500021,22.2002199 C30.7853565,22.2002199 32.9011717,20.6026624 32.9106535,18.1286224 L32.9106535,18.1286224 L32.9106535,18.1286224 Z M20.1604898,10.1137778 L15.1724012,22.0133602 L11.9185459,22.0133602 L9.46370057,12.5165892 C9.31499914,11.9328842 9.18526119,11.7180418 8.7326816,11.4715166 C7.99241218,11.0691209 6.7701929,10.693089 5.69574999,10.4592832 L5.76836624,10.1137778 L11.0069114,10.1137778 C11.6743333,10.1137778 12.274458,10.5578007 12.4270909,11.3265154 L13.7237765,18.2128018 L16.9262917,10.1137778 L20.1604898,10.1137778 L20.1604898,10.1137778 L20.1604898,10.1137778 Z" id="Fill-5" fill="#172E66"></path>
                                </g>
                            </g>
                        </g>
                    </g>
                </g>
            </g>
        </g>
    </g>
</svg>